<svg viewBox="0 0 1080 1080" fill="none" xmlns="http://www.w3.org/2000/svg">
<g clip-path="url(#clip0_8_2060)">
<path d="M47.2912 319.919C224.953 338.945 365.051 171.525 315 0L374.063 72.721C457.714 175.716 614.347 177.427 700.227 76.2838L765 0C714.949 171.525 855.047 338.945 1032.71 319.919L1080 314.854L1005.32 376.203C901.778 461.252 902.124 619.825 1006.03 704.422L1080 764.646L1031.83 759.487C853.468 740.386 712.032 907.155 760 1080L699.392 1007.44C614.086 905.309 456.876 906.104 372.609 1009.09L315 1079.5C365.051 907.976 224.953 740.555 47.2913 759.581L0 764.646L67.1522 712.469C170.677 632.03 177.108 477.852 80.6417 389.071L0 314.854L47.2912 319.919Z" fill="#F1FF48"/>
</g>
<defs>
<clipPath id="clip0_8_2060">
<rect width="1080" height="1080" fill="white"/>
</clipPath>
</defs>
</svg>
