<svg width="850" height="844" viewBox="0 0 850 844" fill="none" xmlns="http://www.w3.org/2000/svg">
<path fill-rule="evenodd" clip-rule="evenodd" d="M808.666 422.552C834.339 394.458 850 357.058 850 316C850 228.739 779.261 158 692 158C692 70.739 621.261 0 534 0C491.986 0 453.802 16.3985 425.5 43.1441C397.198 16.3985 359.014 0 317 0C229.739 0 159 70.739 159 158C71.739 158 0.999986 228.739 0.999986 316C0.999986 356.522 16.2545 393.481 41.3341 421.448C15.6606 449.542 3.58938e-06 486.942 0 528C-7.6286e-06 615.261 70.739 686 158 686C158 773.261 228.739 844 316 844C358.014 844 396.198 827.602 424.5 800.856C452.802 827.602 490.986 844 533 844C620.261 844 691 773.261 691 686C778.261 686 849 615.261 849 528C849 487.478 833.745 450.519 808.666 422.552Z" fill="#F1FF48"/>
</svg>
