<svg version="1.1" xmlns="http://www.w3.org/2000/svg" viewBox="-101 -101 202 202">
  <path fill="#FF8A22" stroke="none" d="M 5.102694996447306e-15,-83.33333333333334 13.052619222005172,-99.14448613738104 21.5682537585434,-80.49381885742237 38.26834323650898,-92.38795325112868 41.666666666666664,-72.16878364870324 60.87614290087207,-79.33533402912352 58.92556509887897,-58.92556509887896 79.33533402912352,-60.87614290087207 72.16878364870323,-41.66666666666667 92.38795325112868,-38.268343236508976 80.49381885742235,-21.56825375854341 99.14448613738104,-13.052619222005166 83.33333333333334,0 99.14448613738104,13.052619222005143 80.49381885742237,21.568253758543392 92.38795325112868,38.268343236508954 72.16878364870324,41.66666666666666 79.33533402912354,60.87614290087204 58.92556509887897,58.92556509887896 60.876142900872075,79.3353340291235 41.6666666666667,72.16878364870321 38.26834323650898,92.38795325112868 21.568253758543417,80.49381885742235 13.052619222005193,99.14448613738104 5.102694996447306e-15,83.33333333333334 -13.052619222005138,99.14448613738105 -21.56825375854337,80.49381885742238 -38.268343236508926,92.38795325112869 -41.66666666666665,72.16878364870324 -60.87614290087203,79.33533402912354 -58.925565098878934,58.925565098879 -79.3353340291235,60.87614290087209 -72.16878364870321,41.6666666666667 -92.38795325112865,38.268343236509025 -80.49381885742235,21.568253758543456 -99.14448613738102,13.052619222005243 -83.33333333333334,1.0205389992894611e-14 -99.14448613738105,-13.052619222005132 -80.49381885742238,-21.568253758543364 -92.38795325112869,-38.268343236508926 -72.16878364870327,-41.66666666666662 -79.33533402912357,-60.87614290087199 -58.925565098878984,-58.92556509887896 -60.87614290087209,-79.33533402912349 -41.66666666666671,-72.16878364870321 -38.26834323650903,-92.38795325112865 -21.568253758543463,-80.49381885742235 -13.05261922200525,-99.14448613738102 z"></path>
  </svg>