<svg version="1.1" xmlns="http://www.w3.org/2000/svg" viewBox="-101 -101 202 202">
  <path fill="#F56EBD" d="M 4.0821559971578446e-15,-66.66666666666667 38.26834323650898,-92.38795325112868 25.512228824339324,-61.59196883408579 70.71067811865476,-70.71067811865474 47.14045207910318,-47.14045207910317 92.38795325112868,-38.268343236508976 61.59196883408579,-25.51222882433932 100,0 66.66666666666667,0 92.38795325112868,38.268343236508976 61.59196883408579,25.51222882433932 70.71067811865476,70.71067811865474 47.14045207910318,47.14045207910317 38.26834323650898,92.38795325112868 25.512228824339324,61.59196883408579 6.123233995736766e-15,100 4.0821559971578446e-15,66.66666666666667 -38.268343236508976,92.38795325112868 -25.512228824339317,61.59196883408579 -70.71067811865474,70.71067811865476 -47.14045207910317,47.14045207910318 -92.38795325112865,38.268343236509025 -61.59196883408577,25.512228824339353 -100,1.2246467991473532e-14 -66.66666666666667,8.164311994315689e-15 -92.38795325112866,-38.268343236509004 -61.591968834085776,-25.51222882433934 -70.71067811865477,-70.71067811865474 -47.140452079103184,-47.14045207910317 -38.26834323650903,-92.38795325112865 -25.512228824339356,-61.59196883408577 -1.8369701987210297e-14,-100 z"/>
</svg>
