<svg width="540" height="540" viewBox="0 0 540 540" fill="none" xmlns="http://www.w3.org/2000/svg">
<g clip-path="url(#clip0_8_2050)">
<path fill-rule="evenodd" clip-rule="evenodd" d="M90 90L180 0V180H0L90 90ZM0 360V180V0H180H360L270 90L180 180L90 270L0 360ZM180 360H0V540V720V900V1080H180H360H540H720H900H1080V900V720V540V360V180V0H900H720H540H360V180H180V360ZM360 360H180L270 270L360 180V360ZM540 180H360L450 90L540 0L630 90L720 180H540ZM720 360L630 270L540 180L450 270L360 360L270 450L180 540V360L90 450L0 540L90 630L180 720H0L90 810L180 900H0L90 990L180 1080V900L270 990L360 1080V900L450 990L540 1080L630 990L720 900V1080L810 990L900 900V1080L990 990L1080 900H900L990 810L1080 720H900L990 630L1080 540L990 450L900 360H1080L990 270L900 180H1080L990 90L900 0V180L810 90L720 0V180V360ZM900 540V360V180H720L810 270L900 360H720H540H360V540V720L270 630L180 540V720V900H360H540H720H900V720V540ZM720 720H900L810 810L720 900V720ZM540 720H720L630 810L540 900L450 810L360 720H540ZM720 540V720L810 630L900 540L810 450L720 360V540ZM720 540L630 630L540 720L450 630L360 540L450 450L540 360L630 450L720 540ZM360 720V900L270 810L180 720H360Z" fill="#F1FF48"/>
</g>
<defs>
<clipPath id="clip0_8_2050">
<rect width="540" height="540" fill="white"/>
</clipPath>
</defs>
</svg>
