<svg viewBox="0 0 1080 1080" fill="none" xmlns="http://www.w3.org/2000/svg">
<g clip-path="url(#clip0_8_2062)">
<path fill-rule="evenodd" clip-rule="evenodd" d="M560.977 0.807028C553.493 0 544.329 0 526 0C507.671 0 498.507 0 491.023 0.807028C419.883 8.47873 365.977 68.5588 366.034 140.111C366.035 141.789 366.085 143.545 366.184 145.463L359.512 137.164C348.027 122.88 342.285 115.738 336.967 110.411C286.412 59.7758 205.811 55.4103 150.083 100.289C144.221 105.01 137.74 111.49 124.78 124.451L124.78 124.451L124.779 124.451L124.779 124.452C111.819 137.411 105.339 143.892 100.618 149.754C55.7395 205.482 60.1049 286.083 110.74 336.637C116.067 341.956 123.209 347.698 137.493 359.183L168.911 384.443C177.793 391.584 182.234 395.155 186.302 397.977C186.453 398.081 186.604 398.186 186.755 398.289L174.97 397.009L174.968 397.009L174.965 397.008C156.747 395.029 147.637 394.04 140.111 394.034C68.5588 393.977 8.47873 447.883 0.807028 519.023C0 526.507 0 535.671 0 554C0 572.329 0 581.493 0.807028 588.977C8.47873 660.117 68.5588 714.023 140.111 713.966C142.017 713.965 144.024 713.9 146.255 713.772L137.493 720.817L137.491 720.819C123.208 732.302 116.066 738.045 110.74 743.362C60.1049 793.917 55.7395 874.518 100.618 930.246C105.339 936.108 111.819 942.589 124.78 955.549C137.74 968.51 144.221 974.99 150.083 979.711C205.811 1024.59 286.412 1020.22 336.967 969.589C342.285 964.262 348.027 957.12 359.511 942.836L359.512 942.836L366.184 934.537C366.085 936.455 366.035 938.211 366.034 939.889C365.977 1011.44 419.883 1071.52 491.023 1079.19C498.507 1080 507.671 1080 526 1080C544.329 1080 553.493 1080 560.977 1079.19C632.117 1071.52 686.023 1011.44 685.966 939.889C685.96 932.362 684.971 923.251 682.991 905.03L681.711 893.245C681.814 893.396 681.919 893.547 682.023 893.698C684.845 897.765 688.415 902.206 695.555 911.087L695.557 911.089L720.817 942.507L720.819 942.509L720.822 942.513C732.304 956.793 738.045 963.934 743.362 969.26C793.917 1019.89 874.518 1024.26 930.246 979.382C936.108 974.661 942.589 968.18 955.549 955.22C968.51 942.259 974.99 935.779 979.711 929.917C1024.59 874.189 1020.22 793.588 969.589 743.033C964.263 737.716 957.122 731.974 942.84 720.491L942.836 720.488L942.836 720.488L934.537 713.816C936.455 713.915 938.211 713.965 939.889 713.966C1011.44 714.023 1071.52 660.117 1079.19 588.977C1080 581.493 1080 572.329 1080 554C1080 535.671 1080 526.507 1079.19 519.023C1071.52 447.883 1011.44 393.977 939.889 394.034C932.362 394.04 923.252 395.029 905.031 397.009L905.03 397.009L894.2 398.186C898.221 395.382 902.661 391.813 911.416 384.774L911.418 384.772L942.836 359.512L942.836 359.511C957.12 348.027 964.262 342.285 969.589 336.967C1020.22 286.412 1024.59 205.811 979.711 150.083C974.99 144.221 968.51 137.74 955.549 124.78C942.589 111.819 936.108 105.339 930.246 100.618C874.518 55.7395 793.917 60.1049 743.362 110.74C738.045 116.066 732.302 123.208 720.819 137.491L720.817 137.493L695.557 168.911L695.556 168.913L695.554 168.915C688.415 177.794 684.845 182.235 682.023 186.302C681.919 186.453 681.814 186.604 681.711 186.755L682.991 174.97C684.971 156.749 685.96 147.638 685.966 140.111C686.023 68.5588 632.117 8.47873 560.977 0.807028ZM287.352 423.851C287.772 422.939 288.197 422.03 288.627 421.123C287.098 421.371 285.565 421.595 284.029 421.793C285.147 422.464 286.255 423.15 287.352 423.851ZM658.207 795.971C657.536 794.852 656.85 793.745 656.149 792.648C657.061 792.228 657.97 791.803 658.877 791.373C658.628 792.902 658.405 794.435 658.207 795.971ZM792.648 423.851C793.617 423.232 794.595 422.624 795.581 422.027C794.223 421.845 792.867 421.643 791.514 421.421C791.896 422.229 792.274 423.039 792.648 423.851ZM658.877 288.627C658.628 287.098 658.405 285.565 658.207 284.029C657.536 285.148 656.85 286.255 656.149 287.352C657.061 287.772 657.97 288.197 658.877 288.627Z" fill="#12D861"/>
</g>
<defs>
<clipPath id="clip0_8_2062">
<rect width="1080" height="1080" fill="white"/>
</clipPath>
</defs>
</svg>
