<svg viewBox="0 0 1080 1080" fill="none" xmlns="http://www.w3.org/2000/svg">
<g clip-path="url(#clip0_8_2052)">
<path d="M536.543 5.93557C538.086 3.28618 541.914 3.28617 543.457 5.93557L617.787 133.574C618.997 135.652 621.754 136.2 623.667 134.743L741.184 45.266C743.623 43.4087 747.16 44.8734 747.571 47.9116L767.347 193.902C767.687 196.412 770.246 197.978 772.636 197.139L934.655 140.245C937.821 139.134 940.866 142.179 939.755 145.345L882.861 307.364C882.022 309.754 883.588 312.313 886.098 312.653L1032.09 332.429C1035.13 332.84 1036.59 336.377 1034.73 338.816L945.257 456.333C943.8 458.246 944.348 461.003 946.426 462.213L1074.06 536.543C1076.71 538.086 1076.71 541.914 1074.06 543.457L946.426 617.787C944.348 618.997 943.8 621.754 945.257 623.667L1034.73 741.184C1036.59 743.623 1035.13 747.16 1032.09 747.571L886.098 767.347C883.588 767.687 882.022 770.246 882.861 772.636L939.755 934.655C940.866 937.821 937.821 940.866 934.655 939.755L772.636 882.861C770.246 882.022 767.687 883.588 767.347 886.098L747.571 1032.09C747.16 1035.13 743.623 1036.59 741.184 1034.73L623.667 945.257C621.754 943.8 618.997 944.348 617.787 946.426L543.457 1074.06C541.914 1076.71 538.086 1076.71 536.543 1074.06L462.213 946.426C461.003 944.348 458.246 943.8 456.333 945.257L338.816 1034.73C336.377 1036.59 332.84 1035.13 332.429 1032.09L312.653 886.098C312.313 883.588 309.754 882.022 307.364 882.861L145.345 939.755C142.179 940.866 139.134 937.821 140.245 934.655L197.139 772.636C197.978 770.246 196.412 767.687 193.902 767.347L47.9116 747.571C44.8734 747.16 43.4087 743.623 45.266 741.184L134.743 623.667C136.2 621.754 135.652 618.997 133.574 617.787L5.93557 543.457C3.28618 541.914 3.28617 538.086 5.93557 536.543L133.574 462.213C135.652 461.003 136.2 458.246 134.743 456.333L45.266 338.816C43.4087 336.377 44.8734 332.84 47.9116 332.429L193.902 312.653C196.412 312.313 197.978 309.754 197.139 307.364L140.245 145.345C139.134 142.179 142.179 139.134 145.345 140.245L307.364 197.139C309.754 197.978 312.313 196.412 312.653 193.902L332.429 47.9116C332.84 44.8734 336.377 43.4087 338.816 45.266L456.333 134.743C458.246 136.2 461.003 135.652 462.213 133.574L536.543 5.93557Z" fill="#F1FF48"/>
</g>
<defs>
<clipPath id="clip0_8_2052">
<rect width="1080" height="1080" fill="white"/>
</clipPath>
</defs>
</svg>
