<svg viewBox="0 0 1080 1080" fill="none" xmlns="http://www.w3.org/2000/svg">
<g clip-path="url(#clip0_8_2072)">
<path fill-rule="evenodd" clip-rule="evenodd" d="M457.707 736.246C425.575 928.296 414.029 1065.43 432.341 1069.16C450.653 1072.88 493.609 942.138 539.071 752.799C582.88 942.527 624.693 1073.64 643.037 1070.08C661.38 1066.51 651.032 929.28 620.577 736.957C733.657 895.478 822.463 1000.61 838.046 990.298C853.629 979.984 791.551 857.158 689.815 691.128C854.95 794.309 977.23 857.456 987.68 841.964C998.13 826.471 893.774 736.751 736.247 622.293C928.297 654.425 1065.43 665.97 1069.16 647.659C1072.88 629.347 942.137 586.391 752.799 540.928C942.527 497.119 1073.64 455.306 1070.08 436.963C1066.51 418.619 929.281 428.968 736.957 459.422C895.478 346.343 1000.61 257.537 990.298 241.954C979.984 226.371 857.158 288.449 691.128 390.184C794.309 225.049 857.456 102.769 841.964 92.3193C826.472 81.8696 736.751 186.225 622.293 343.753C654.424 151.703 665.97 14.5662 647.658 10.8406C629.346 7.11498 586.391 137.861 540.928 327.2C497.12 137.472 455.307 6.35509 436.963 9.92073C418.619 13.4864 428.968 150.719 459.423 343.043C346.343 184.522 257.537 79.3875 241.954 89.7016C226.371 100.016 288.448 222.841 390.183 388.87C225.049 285.69 102.769 222.543 92.3196 238.035C81.8699 253.528 186.226 343.248 343.755 457.707C151.704 425.575 14.5659 414.029 10.8403 432.341C7.11474 450.653 137.861 493.609 327.199 539.071C137.472 582.88 6.35556 624.693 9.92121 643.036C13.4869 661.38 150.72 651.031 343.044 620.576C184.522 733.656 79.3873 822.463 89.7013 838.046C100.015 853.629 222.841 791.551 388.871 689.816C285.69 854.951 222.543 977.23 238.036 987.68C253.528 998.129 343.248 893.774 457.707 736.246Z" fill="#000000"/>
</g>
<defs>
<clipPath id="clip0_8_2072">
<rect width="1080" height="1080" fill="white"/>
</clipPath>
</defs>
</svg>
