<svg viewBox="0 0 1080 1080" fill="none" xmlns="http://www.w3.org/2000/svg">
<g clip-path="url(#clip0_8_2056)">
<path d="M532.043 9.96338C536.046 4.80893 543.834 4.80893 547.838 9.96338L637.309 125.155C729.455 243.791 836.09 350.426 954.726 442.572L1069.92 532.043C1075.07 536.046 1075.07 543.834 1069.92 547.838L954.726 637.308C836.09 729.455 729.455 836.089 637.309 954.726L547.838 1069.92C543.835 1075.07 536.046 1075.07 532.043 1069.92L442.572 954.726C350.426 836.089 243.791 729.455 125.155 637.308L9.96368 547.838C4.80922 543.834 4.80925 536.046 9.96368 532.043L125.155 442.572C243.791 350.426 350.426 243.791 442.572 125.155L532.043 9.96338Z" fill="#F56EBD"/>
</g>
<defs>
<clipPath id="clip0_8_2056">
<rect width="1080" height="1080" fill="white"/>
</clipPath>
</defs>
</svg>
