<svg width="807" height="244" viewBox="0 0 807 244" fill="none" xmlns="http://www.w3.org/2000/svg">
<path fill-rule="evenodd" clip-rule="evenodd" d="M772.53 70.6767C788.915 72.8765 803.834 62.5893 805.873 47.6691C807.914 32.7254 796.262 18.793 779.846 16.5503C763.839 14.3634 749.214 24.0979 746.602 38.4382L746.555 38.4007C747.866 23.8974 736.393 10.614 720.398 8.42871C706.92 6.58741 694.422 13.1977 689.25 23.8927C688.474 24.0254 687.702 24.1706 686.935 24.3281C685.142 12.2971 674.722 2.1883 660.95 0.306762C644.534 -1.93601 629.571 8.36013 627.53 23.3038C627.162 25.9969 627.239 28.6571 627.708 31.222C623.647 30.4296 619.306 30.4181 614.922 31.3273C599.103 34.608 588.566 48.6654 590.889 63.0553L590.832 63.0355C587.228 48.9264 571.979 40.234 556.172 43.5123C542.853 46.2746 533.278 56.6769 531.971 68.4848C531.284 68.8689 530.605 69.2633 529.935 69.6678C524.228 58.9253 511.033 52.8737 497.422 55.6964C489.882 57.2602 483.542 61.2727 479.222 66.6026C475.451 62.2589 470.31 58.836 464.207 57.0117C448.368 52.277 432.035 60.0989 427.672 74.4879L427.671 74.4879C431.92 60.0645 422.56 44.5618 406.721 39.827C398.371 37.3309 389.884 38.3245 383.086 41.9302C381.558 41.5054 379.976 41.1853 378.348 40.9803C361.947 38.9145 347.123 49.3148 345.184 64.2246L345.183 64.2244C347.002 49.2991 335.22 35.5473 318.819 33.4814C302.417 31.4155 287.593 41.8162 285.654 56.7264L285.654 56.7266C287.473 41.8012 275.691 28.0493 259.289 25.9834C246.545 24.3781 234.753 30.3 229.218 40.0158C225.485 39.2942 221.592 39.3901 217.753 40.4404C203.238 44.4123 194.994 60.5314 199.301 76.4777L199.3 76.4775C194.888 60.5601 179.586 50.8843 165.07 54.8561C156.787 57.1227 150.546 63.3449 147.514 71.2333C144.411 62.9084 137.193 55.8603 127.487 52.855C111.696 47.9651 95.2873 55.626 90.7821 69.9709L90.7816 69.9709C95.1715 55.5902 85.9637 39.997 70.1723 35.1071C54.3452 30.2061 37.8981 37.9128 33.4367 52.3204C28.9881 66.6867 38.1361 82.2908 53.8798 87.2392C38.0947 82.4246 21.7292 90.1283 17.2807 104.495C12.8292 118.87 21.9919 134.485 37.7541 139.423L37.7542 139.424C21.9597 134.59 5.57586 142.294 1.12439 156.669C-3.33701 171.077 5.87671 186.73 21.7038 191.631C37.4958 196.521 53.905 188.859 58.4095 174.513L58.4098 174.514C54.019 188.895 63.2269 204.489 79.0188 209.379C94.8107 214.269 111.22 206.607 115.725 192.261L115.725 192.261C112.442 203.015 116.762 214.447 125.753 221.574C130.275 237.309 145.474 246.835 159.896 242.889C174.404 238.919 182.647 222.814 178.354 206.875C182.775 222.779 198.069 232.443 212.577 228.474C227.093 224.502 235.336 208.383 231.03 192.437L231.031 192.436C235.443 208.354 250.745 218.03 265.261 214.058C275.777 211.18 283.001 201.927 284.546 190.983C288.505 193.607 293.196 195.405 298.342 196.053C314.744 198.119 329.569 187.718 331.507 172.807C329.686 187.733 341.469 201.486 357.871 203.552C368.528 204.894 378.519 200.974 384.742 193.973C390.203 190.694 394.414 185.649 396.327 179.343L396.327 179.343C392.077 193.766 401.438 209.269 417.277 214.004C433.116 218.739 449.449 210.917 453.813 196.528L453.813 196.527C449.564 210.951 458.924 226.454 474.763 231.189C490.458 235.88 506.637 228.244 511.176 214.106C516.955 216.713 523.773 217.575 530.698 216.138C546.881 212.782 557.536 198.147 554.549 183.416C557.667 198.12 573.264 207.31 589.447 203.954C605.652 200.593 616.315 185.922 613.286 171.17C616.373 185.91 631.991 195.131 648.196 191.77C664.42 188.405 675.088 173.706 672.026 158.938C671.351 155.683 670.065 152.696 668.297 150.054C670.308 146.978 671.67 143.469 672.19 139.658C672.274 139.045 672.335 138.433 672.373 137.824L672.498 137.885C672.375 138.468 672.273 139.059 672.191 139.657C670.15 154.601 681.802 168.533 698.218 170.776C714.588 173.013 729.512 162.781 731.621 147.907C729.662 162.802 741.295 176.662 757.665 178.899C774.081 181.142 789.044 170.846 791.086 155.902C793.127 140.958 781.474 127.026 765.058 124.783C761.306 124.27 757.63 124.413 754.166 125.116C754.999 124.248 755.805 123.357 756.582 122.443C759.212 123.57 762.056 124.372 765.059 124.782C781.475 127.025 796.438 116.729 798.479 101.785C800.518 86.8647 788.905 72.9526 772.53 70.6767ZM734.564 138.988C733.102 141.624 732.097 144.537 731.656 147.653C731.984 145.155 731.93 142.686 731.536 140.296C732.559 139.883 733.568 139.447 734.564 138.988ZM768.162 70.3599C769.55 70.3683 770.957 70.4652 772.375 70.6555C770.869 70.4462 769.403 70.1384 767.984 69.7405C768.044 69.9466 768.104 70.1531 768.162 70.3599ZM497.401 180.152C497.202 180.613 497.016 181.078 496.843 181.548C494.878 180.468 492.761 179.57 490.513 178.89L490.513 178.889C492.812 179.568 495.12 179.983 497.401 180.152ZM390.26 91.9018L390.23 91.9171C390.477 91.9839 390.724 92.0537 390.97 92.1265L390.971 92.1257C390.733 92.0535 390.495 91.9788 390.26 91.9018ZM251.784 80.095L251.788 80.082C251.971 80.1088 252.155 80.1342 252.339 80.158C252.154 80.1354 251.969 80.1144 251.784 80.095ZM613.099 161.858C612.314 162.623 611.508 163.371 610.682 164.101C611.863 166.244 612.743 168.58 613.266 171.073C612.627 167.962 612.597 164.856 613.099 161.858ZM554.224 181.532C554.298 182.086 554.391 182.641 554.504 183.196C554.383 182.628 554.244 182.068 554.087 181.516L554.224 181.532Z" fill="#11D861"/>
</svg>
