<svg width="820" height="245" viewBox="0 0 820 245" fill="none" xmlns="http://www.w3.org/2000/svg">
<path fill-rule="evenodd" clip-rule="evenodd" d="M788.557 59.7684C805.076 60.4418 818.978 48.8175 819.626 33.7727C820.276 18.7041 807.383 5.91041 790.83 5.19712C774.69 4.50161 761.029 15.5484 759.755 30.0689L759.705 30.0359C759.668 15.4735 747.014 3.30936 730.885 2.61435C717.295 2.02875 705.463 9.76771 701.303 20.8956C700.543 21.0996 699.788 21.3157 699.039 21.5435C696.139 9.73021 684.828 0.629517 670.941 0.0311147C654.388 -0.682176 640.443 10.9551 639.794 26.0236C639.788 26.1454 639.784 26.2671 639.781 26.3886C638.503 26.5002 637.215 26.6882 635.924 26.9559C620.106 30.2366 609.568 44.2941 611.892 58.6839L611.835 58.6642C608.23 44.5551 592.982 35.8626 577.174 39.141C563.855 41.9033 554.28 52.3055 552.974 64.1134C552.645 64.2973 552.317 64.4836 551.992 64.6722C550.872 63.4561 549.638 62.3277 548.305 61.3012C541.743 53.1123 530.24 48.8745 518.425 51.325C508.34 53.4166 500.401 59.8887 496.573 68.0345C492.106 58.8917 482.309 52.2661 470.627 51.6447C454.119 50.7664 440.083 62.2091 439.224 77.2207L439.224 77.2209C439.963 62.2028 427.22 49.3353 410.712 48.457C409.208 48.3771 407.726 48.3993 406.271 48.517C400.849 40.5586 391.045 35.3803 379.994 35.6816C363.47 36.1321 350.398 48.6643 350.747 63.6956L350.747 63.6955C350.277 48.6671 336.542 36.8654 320.017 37.3159C303.492 37.7664 290.42 50.299 290.769 65.3307L290.769 65.3309C290.299 50.3025 276.564 38.5006 260.039 38.9511C254.558 39.1006 249.457 40.5791 245.1 43.0371C245.065 42.9762 245.03 42.9154 244.995 42.8547C236.722 28.4998 219.421 22.9685 206.354 30.5001C201.095 33.5309 197.324 38.2153 195.233 43.667C192.233 41.3182 188.72 39.4462 184.802 38.2331C169.011 33.3432 152.602 41.0042 148.097 55.3492L148.097 55.3489C152.486 40.9682 143.279 25.3751 127.487 20.4852C111.696 15.5953 95.2872 23.2562 90.782 37.6011L90.7815 37.6011C95.1714 23.2204 85.9636 7.62715 70.1722 2.73724C54.3451 -2.16371 37.898 5.54298 33.4366 19.9506C28.988 34.3168 38.136 49.921 53.8797 54.8694C38.0946 50.0547 21.7291 57.7585 17.2806 72.1247C12.8291 86.5002 21.9918 102.115 37.754 107.053L37.7541 107.054C21.9596 102.22 5.57576 109.924 1.12429 124.3C-3.33711 138.707 5.87661 154.36 21.7037 159.261C37.4957 164.151 53.9049 156.489 58.4094 142.143L58.4097 142.144C54.0189 156.525 63.2268 172.119 79.0187 177.009C94.8106 181.899 111.22 174.237 115.724 159.892L115.725 159.891C111.334 174.273 120.542 189.867 136.334 194.757C145.102 197.472 154.061 196.317 161.067 192.297C164.685 192.004 168.249 190.95 171.546 189.067L171.546 189.067C158.549 196.628 154.699 214.323 162.954 228.646C171.228 243.001 188.528 248.532 201.596 241C214.628 233.489 218.528 215.822 210.342 201.488C218.642 215.756 235.884 221.237 248.916 213.726C253.55 211.055 257.029 207.101 259.221 202.47C260.94 202.7 262.706 202.796 264.504 202.747C275.292 202.453 284.607 197.01 289.679 189.085C291.938 188.531 294.143 187.659 296.239 186.451C296.449 186.33 296.656 186.207 296.86 186.081C301.888 195.267 312.445 201.44 324.482 201.111C341.008 200.661 354.08 188.127 353.729 173.095C354.135 186.112 364.493 196.708 377.995 199.021C383.026 206.409 391.796 211.539 402.007 212.082C418.515 212.961 432.551 201.518 433.41 186.506L433.41 186.506C432.671 201.524 445.414 214.392 461.922 215.27C478.43 216.148 492.466 204.705 493.325 189.694L493.325 189.693C492.586 204.712 505.329 217.579 521.837 218.458C529.647 218.873 536.904 216.531 542.473 212.358C545.47 212.595 548.574 212.415 551.7 211.767C567.883 208.411 578.539 193.776 575.551 179.044C578.669 193.749 594.266 202.939 610.449 199.583C626.654 196.222 637.318 181.551 634.288 166.799C637.375 181.539 652.993 190.76 669.199 187.399C685.422 184.034 696.091 169.334 693.028 154.566C692.67 152.842 692.141 151.193 691.46 149.63C693.574 146.088 694.849 142.056 695.035 137.743C695.062 137.125 695.065 136.51 695.047 135.9L695.177 135.95C695.109 136.541 695.062 137.139 695.036 137.742C694.386 152.811 707.279 165.605 723.832 166.318C740.338 167.029 754.251 155.46 754.974 140.454C754.403 155.467 767.269 168.191 783.775 168.902C800.329 169.615 814.274 157.978 814.923 142.91C815.573 127.841 802.68 115.047 786.127 114.334C782.343 114.171 778.696 114.653 775.312 115.674C776.061 114.733 776.781 113.771 777.47 112.789C780.193 113.668 783.099 114.202 786.127 114.333C802.68 115.046 816.626 103.409 817.275 88.3405C817.923 73.2956 805.072 60.5185 788.557 59.7684ZM757.078 131.301C755.867 134.062 755.136 137.054 754.985 140.198C755.081 137.68 754.799 135.227 754.185 132.884C755.165 132.378 756.13 131.85 757.078 131.301ZM784.178 59.8574C785.561 59.7372 786.971 59.7034 788.4 59.7617C786.881 59.6927 785.393 59.522 783.944 59.2571C784.023 59.4567 784.101 59.6568 784.178 59.8574ZM524.85 163.921C525.881 163.973 526.902 163.976 527.912 163.933C527.843 163.984 527.775 164.035 527.708 164.086C527.663 164.12 527.618 164.154 527.573 164.188C526.678 164.063 525.769 163.974 524.849 163.922L524.85 163.921ZM407.676 102.992L407.699 102.994L407.699 102.993L407.675 102.991L407.676 102.992ZM384.056 90.3084C384.013 90.2471 383.97 90.1855 383.927 90.1238C383.162 90.2011 382.387 90.2523 381.605 90.2765C382.43 90.257 383.247 90.2681 384.056 90.3084ZM236.402 82.4334L236.485 82.3849L236.486 82.386L236.403 82.4336L236.402 82.4334ZM634.102 157.486C633.316 158.251 632.51 158.999 631.684 159.73C632.865 161.873 633.746 164.208 634.268 166.701C633.629 163.591 633.599 160.484 634.102 157.486ZM575.226 177.161C575.3 177.715 575.393 178.27 575.506 178.825C575.385 178.256 575.246 177.696 575.089 177.145L575.226 177.161Z" fill="#6900BA"/>
</svg>
