<svg viewBox="0 0 1080 1080" fill="none" xmlns="http://www.w3.org/2000/svg">
<g clip-path="url(#clip0_8_2061)">
<path d="M540 0L556.279 27.9539C590.16 86.133 667.346 101.486 720.912 60.7014L746.649 41.105L750.991 73.1607C760.029 139.877 825.464 183.599 890.56 166.418L921.838 158.162L913.582 189.44C896.401 254.536 940.123 319.971 1006.84 329.009L1038.9 333.351L1019.3 359.088C978.514 412.654 993.867 489.84 1052.05 523.721L1080 540L1052.05 556.279C993.867 590.16 978.514 667.346 1019.3 720.912L1038.9 746.649L1006.84 750.991C940.123 760.029 896.401 825.464 913.582 890.56L921.838 921.838L890.56 913.582C825.464 896.401 760.029 940.123 750.991 1006.84L746.649 1038.9L720.912 1019.3C667.346 978.514 590.16 993.867 556.279 1052.05L540 1080L523.721 1052.05C489.84 993.867 412.654 978.514 359.088 1019.3L333.351 1038.9L329.009 1006.84C319.971 940.123 254.536 896.401 189.44 913.582L158.162 921.838L166.418 890.56C183.599 825.464 139.877 760.029 73.1608 750.991L41.105 746.649L60.7013 720.912C101.486 667.346 86.1331 590.16 27.9539 556.279L0 540L27.9539 523.721C86.133 489.84 101.486 412.654 60.7014 359.088L41.105 333.351L73.1607 329.009C139.877 319.971 183.599 254.536 166.418 189.44L158.162 158.162L189.44 166.418C254.536 183.599 319.971 139.877 329.009 73.1608L333.351 41.105L359.088 60.7013C412.654 101.486 489.84 86.1331 523.721 27.9539L540 0Z" fill="#FF8A22"/>
</g>
<defs>
<clipPath id="clip0_8_2061">
<rect width="1080" height="1080" fill="white"/>
</clipPath>
</defs>
</svg>
