<svg viewBox="0 0 1080 1080" fill="none" xmlns="http://www.w3.org/2000/svg">
<g clip-path="url(#clip0_8_2053)">
<path d="M536.175 12.512C537.329 8.73791 542.671 8.73791 543.825 12.5119L577.42 122.398C578.46 125.798 583.086 126.253 584.769 123.122L639.156 21.9012C641.024 18.4248 646.264 19.4672 646.66 23.3938L658.171 137.722C658.527 141.26 662.976 142.609 665.238 139.866L738.327 51.2007C740.837 48.1555 745.773 50.2001 745.395 54.1284L734.381 168.506C734.04 172.045 738.14 174.236 740.894 171.987L829.876 99.2845C832.932 96.7876 837.375 99.7559 836.237 103.535L804.105 210.295C802.97 214.068 807.398 217.037 810.457 214.553L1073.07 1.30698C1076.8 -1.72429 1081.72 3.20069 1078.69 6.93365L865.447 269.543C862.963 272.602 865.932 277.03 869.705 275.895L976.465 243.763C980.244 242.625 983.213 247.068 980.716 250.124L908.013 339.106C905.764 341.86 907.955 345.96 911.494 345.619L1025.87 334.605C1029.8 334.227 1031.84 339.163 1028.8 341.673L940.134 414.762C937.391 417.024 938.74 421.473 942.278 421.829L1056.61 433.34C1060.53 433.736 1061.58 438.976 1058.1 440.844L956.878 495.231C953.747 496.914 954.202 501.54 957.602 502.58L1067.49 536.175C1071.26 537.329 1071.26 542.671 1067.49 543.825L957.602 577.42C954.202 578.46 953.747 583.086 956.878 584.769L1058.1 639.156C1061.58 641.024 1060.53 646.264 1056.61 646.66L942.278 658.171C938.74 658.527 937.391 662.976 940.134 665.238L1028.8 738.327C1031.84 740.837 1029.8 745.773 1025.87 745.395L911.494 734.381C907.955 734.04 905.764 738.14 908.013 740.894L980.716 829.876C983.212 832.932 980.244 837.375 976.465 836.237L869.709 804.107C865.936 802.971 862.967 807.4 865.451 810.459L1079.14 1073.52C1082.18 1077.25 1077.25 1082.18 1073.52 1079.14L810.459 865.451C807.4 862.967 802.971 865.936 804.107 869.709L836.237 976.465C837.375 980.244 832.932 983.212 829.876 980.715L740.894 908.013C738.14 905.764 734.04 907.955 734.381 911.494L745.395 1025.87C745.773 1029.8 740.837 1031.84 738.327 1028.8L665.238 940.134C662.976 937.391 658.527 938.74 658.171 942.278L646.66 1056.61C646.264 1060.53 641.024 1061.58 639.156 1058.1L584.769 956.878C583.086 953.747 578.46 954.202 577.42 957.602L543.825 1067.49C542.671 1071.26 537.329 1071.26 536.175 1067.49L502.58 957.602C501.54 954.202 496.914 953.747 495.231 956.878L440.844 1058.1C438.976 1061.58 433.736 1060.53 433.34 1056.61L421.829 942.278C421.473 938.74 417.024 937.391 414.762 940.134L341.673 1028.8C339.163 1031.84 334.227 1029.8 334.605 1025.87L345.619 911.494C345.96 907.955 341.86 905.764 339.106 908.013L250.124 980.715C247.068 983.212 242.625 980.244 243.763 976.465L275.895 869.705C277.03 865.932 272.602 862.963 269.543 865.447L6.93363 1078.69C3.20068 1081.72 -1.72429 1076.8 1.30699 1073.07L214.553 810.457C217.037 807.398 214.068 802.97 210.295 804.105L103.535 836.237C99.7559 837.375 96.7876 832.932 99.2845 829.876L171.987 740.894C174.236 738.14 172.045 734.04 168.506 734.381L54.1284 745.395C50.2001 745.773 48.1555 740.837 51.2007 738.327L139.866 665.238C142.609 662.976 141.26 658.527 137.722 658.171L23.3938 646.66C19.4672 646.264 18.4248 641.024 21.9012 639.156L123.122 584.769C126.253 583.086 125.798 578.46 122.398 577.42L12.512 543.825C8.73792 542.671 8.73791 537.329 12.512 536.175L122.398 502.58C125.798 501.54 126.253 496.914 123.122 495.231L21.9012 440.844C18.4248 438.976 19.4671 433.736 23.3938 433.34L137.722 421.829C141.26 421.473 142.609 417.024 139.866 414.762L51.2007 341.673C48.1555 339.163 50.2001 334.227 54.1284 334.605L168.506 345.619C172.045 345.96 174.236 341.86 171.987 339.106L99.2845 250.124C96.7876 247.068 99.7559 242.625 103.535 243.763L210.291 275.893C214.064 277.029 217.033 272.6 214.549 269.541L0.85693 6.4837C-2.17561 2.75061 2.7506 -2.17561 6.4837 0.856926L269.541 214.549C272.6 217.033 277.029 214.064 275.893 210.291L243.763 103.535C242.625 99.7559 247.068 96.7876 250.124 99.2845L339.106 171.987C341.86 174.236 345.96 172.045 345.619 168.506L334.605 54.1284C334.227 50.2001 339.163 48.1555 341.673 51.2007L414.762 139.866C417.024 142.609 421.473 141.26 421.829 137.722L433.34 23.3938C433.736 19.4671 438.976 18.4248 440.844 21.9012L495.231 123.122C496.914 126.253 501.54 125.798 502.58 122.398L536.175 12.512Z" fill="#F1FF48"/>
</g>
<defs>
<clipPath id="clip0_8_2053">
<rect width="1080" height="1080" fill="white"/>
</clipPath>
</defs>
</svg>
