<svg width="752" height="223" viewBox="0 0 752 223" fill="none" xmlns="http://www.w3.org/2000/svg">
<path fill-rule="evenodd" clip-rule="evenodd" d="M294.126 41.8121C301.081 28.4811 294.89 11.4631 280.264 3.75849C265.605 -3.96349 248.023 0.59432 240.994 13.9386C239.482 16.809 238.581 19.8521 238.245 22.9376C237.094 28.1419 237.265 33.8246 239.017 39.4231L239.016 39.4229C233.98 23.6919 218.308 14.6269 203.961 19.1679C189.622 23.7062 182.021 40.1201 186.934 55.8751C181.888 40.162 166.227 31.1109 151.888 35.6492C141.817 38.8367 135.07 47.8827 133.648 58.4441C129.452 53.9935 123.745 50.6655 117.09 49.2442C100.924 45.7913 85.2689 54.894 82.0693 69.5854L82.0689 69.5855C85.1504 54.8688 74.5801 40.1649 58.4135 36.7121C42.2104 33.2514 26.5214 42.4032 23.3712 57.1531C20.2299 71.8606 30.7416 86.5807 46.8658 90.0961C30.7123 86.7177 15.1044 95.8592 11.9632 110.567C8.81992 125.284 19.3471 140.013 35.4888 143.516L35.4891 143.517C19.3244 140.12 3.6982 149.264 0.554951 163.981C-2.59532 178.731 7.98609 193.494 24.1892 196.954C40.3563 200.407 56.0116 191.304 59.2104 176.611L59.2108 176.612C56.1284 191.329 66.6988 206.033 82.8658 209.486C99.0329 212.939 114.688 203.836 117.887 189.144L117.887 189.144C114.805 203.861 125.375 218.565 141.542 222.018C157.746 225.479 173.435 216.327 176.585 201.577C176.848 200.344 177.016 199.11 177.092 197.883C184.316 206.555 195.62 210.609 206.204 207.259C220.544 202.72 228.146 186.302 223.228 170.545C228.272 186.262 243.935 195.316 258.276 190.777C264.003 188.964 268.656 185.257 271.865 180.453C279.29 180.476 286.354 177.816 291.466 172.888C292.212 173.239 292.972 173.557 293.742 173.839C291.663 185.583 297.989 198.296 310.067 204.659C324.726 212.381 342.308 207.823 349.337 194.479C356.351 181.164 350.209 164.133 335.62 156.386L335.621 156.386C343.508 160.507 352.231 161.083 359.697 158.655C367.085 163.296 376.879 164.571 386.287 161.297C370.723 166.828 362.158 182.779 367.15 196.976C372.154 211.204 388.881 218.283 404.511 212.786C420.106 207.302 428.717 191.371 423.785 177.166L423.786 177.166C428.83 191.331 445.517 198.366 461.113 192.882C472.642 188.827 480.354 179.063 481.599 168.508C483.623 168.448 485.608 168.195 487.527 167.764C494.307 173.741 504.208 176.276 514.068 174.031C517.919 178.438 523.186 181.883 529.428 183.656C545.349 188.177 561.591 180.107 565.733 165.628C561.648 180.123 571.225 195.525 587.146 200.046C603.084 204.572 619.345 196.479 623.465 181.97C625.416 175.1 624.295 168.024 620.882 161.996C627.495 156.987 631.704 149.438 631.704 140.995C631.704 140.87 631.703 140.745 631.701 140.62C631.703 140.618 631.706 140.616 631.708 140.614C631.706 140.74 631.705 140.867 631.705 140.994C631.705 156.077 645.136 168.303 661.705 168.303C678.226 168.303 691.628 156.146 691.704 141.123C691.78 156.147 705.182 168.304 721.704 168.304C738.272 168.304 751.704 156.078 751.704 140.995C751.704 125.913 738.272 113.686 721.704 113.686C717.917 113.686 714.293 114.325 710.957 115.49C711.664 114.518 712.342 113.525 712.989 112.515C715.747 113.276 718.673 113.685 721.704 113.685C738.273 113.685 751.704 101.458 751.704 86.3755C751.704 71.3167 738.315 59.1046 721.782 59.0662C738.315 59.0278 751.704 46.8158 751.704 31.757C751.704 16.6745 738.273 4.44766 721.704 4.44766C705.549 4.44766 692.376 16.0723 691.729 30.6342L691.678 30.6034C691.013 16.0561 677.848 4.44797 661.704 4.44797C648.101 4.44797 636.613 12.6891 632.936 23.9858C632.185 24.2224 631.441 24.4707 630.702 24.7306C627.296 13.0531 615.604 4.44777 601.704 4.44777C587.465 4.44777 575.542 13.4793 572.472 25.593C559.953 22.7442 547.511 27.5363 541.177 36.9679C540.39 36.9903 539.606 37.0257 538.824 37.074C538.738 24.9103 529.841 13.4385 516.47 9.64159C504.339 6.19679 492.021 10.0622 485.012 18.5028C478.464 16.0154 470.786 15.7867 463.356 18.3995C447.761 23.8838 439.15 39.8148 444.081 54.0192L444.081 54.0192C439.036 39.8545 422.349 32.8198 406.754 38.3041C396.259 41.9947 388.927 50.4162 386.757 59.8589C386.65 59.8009 386.542 59.7435 386.434 59.6866C379.482 56.0244 371.872 55.1241 365.043 56.6133C360.246 55.9807 355.143 56.4536 350.152 58.2087L350.064 58.2396C350.134 47.808 343.963 37.313 333.35 31.7221C318.724 24.0176 301.188 28.5374 294.127 41.8121L294.126 41.8121ZM365.297 110.727L365.344 110.762C365.388 110.795 365.433 110.828 365.477 110.862C365.861 110.686 366.25 110.517 366.644 110.355C366.591 110.339 366.539 110.323 366.487 110.307C366.057 110.431 365.627 110.546 365.196 110.652C365.23 110.677 365.264 110.702 365.297 110.727ZM187.453 150.25L187.447 150.272C187.631 150.208 187.816 150.146 188.002 150.086L188.001 150.086C187.819 150.143 187.636 150.198 187.453 150.25ZM171.159 167.238C165.694 169.359 159.418 169.963 153.059 168.627L153.059 168.628C159.71 170.071 165.408 173.421 169.589 177.89C169.491 174.187 170.041 170.58 171.159 167.238ZM569.878 157.286C568.828 157.601 567.767 157.891 566.696 158.156C566.752 160.603 566.452 163.08 565.761 165.532C566.634 162.479 568.045 159.711 569.878 157.286ZM693.413 131.888C692.321 134.698 691.72 137.719 691.704 140.866C691.692 138.347 691.304 135.908 690.59 133.594C691.547 133.046 692.489 132.477 693.413 131.888ZM717.412 59.3436C718.788 59.164 720.195 59.0695 721.626 59.0662C720.105 59.0627 718.611 58.9562 717.152 58.7539C717.199 58.8592 717.246 58.9646 717.292 59.0701C717.332 59.1611 717.372 59.2523 717.412 59.3436Z" fill="#F2FF47"/>
</svg>
