<svg viewBox="0 0 1080 1080" fill="none" xmlns="http://www.w3.org/2000/svg">
<path fill-rule="evenodd" clip-rule="evenodd" d="M473.472 12.6298C468.362 7.83976 460 11.4626 460 18.4661V147.315L276.72 78.2328C270.166 75.7627 263.827 82.3098 266.507 88.7802L315.816 207.821L120.05 214.136C113.05 214.361 109.699 222.836 114.651 227.788L205.761 318.898L27.3141 399.649C20.9335 402.536 21.0805 411.648 27.5509 414.328L146.591 463.636L12.6298 606.529C7.83976 611.638 11.4626 620 18.4661 620H147.315L78.2328 803.28C75.7626 809.834 82.3097 816.173 88.7802 813.493L207.821 764.185L214.136 959.95C214.361 966.95 222.836 970.301 227.788 965.349L318.898 874.239L399.648 1052.69C402.536 1059.07 411.648 1058.92 414.328 1052.45L463.636 933.409L606.529 1067.37C611.638 1072.16 620 1068.54 620 1061.53V932.686L803.28 1001.77C809.834 1004.24 816.173 997.691 813.493 991.22L764.185 872.18L959.95 865.865C966.95 865.639 970.301 857.164 965.349 852.212L874.239 761.102L1052.69 680.352C1059.07 677.465 1058.92 668.352 1052.45 665.672L933.409 616.364L1067.37 473.472C1072.16 468.362 1068.54 460 1061.53 460H932.686L1001.77 276.72C1004.24 270.166 997.691 263.827 991.22 266.507L872.18 315.815L865.865 120.05C865.639 113.05 857.164 109.699 852.212 114.651L761.102 205.761L680.352 27.314C677.464 20.9333 668.352 21.0803 665.672 27.5507L616.364 146.591L473.472 12.6298Z" fill="#F56EBD"/>
</svg>
