<svg viewBox="0 0 1080 1080" fill="none" xmlns="http://www.w3.org/2000/svg">
<g clip-path="url(#clip0_8_2066)">
<path d="M536.289 9.22095C537.634 5.87873 542.366 5.87872 543.711 9.22094L590.92 126.531C592.083 129.421 595.957 129.931 597.829 127.441L673.791 26.3464C675.956 23.4661 680.526 24.6907 680.96 28.2672L696.199 153.799C696.574 156.891 700.184 158.387 702.636 156.465L802.176 78.4765C805.012 76.2545 809.109 78.6203 808.603 82.1872L790.832 207.386C790.395 210.47 793.495 212.849 796.361 211.628L912.694 162.059C916.008 160.646 919.354 163.992 917.941 167.306L868.372 283.639C867.151 286.505 869.53 289.605 872.614 289.168L997.813 271.397C1001.38 270.891 1003.75 274.988 1001.52 277.824L923.534 377.364C921.613 379.816 923.109 383.426 926.201 383.801L1051.73 399.04C1055.31 399.474 1056.53 404.044 1053.65 406.209L952.559 482.171C950.069 484.043 950.579 487.917 953.469 489.08L1070.78 536.289C1074.12 537.634 1074.12 542.366 1070.78 543.711L953.469 590.92C950.579 592.083 950.069 595.957 952.559 597.829L1053.65 673.791C1056.53 675.956 1055.31 680.526 1051.73 680.96L926.201 696.199C923.109 696.574 921.613 700.184 923.534 702.636L1001.52 802.176C1003.75 805.012 1001.38 809.109 997.813 808.603L872.614 790.832C869.53 790.395 867.151 793.495 868.372 796.361L917.941 912.694C919.354 916.008 916.008 919.354 912.694 917.941L796.361 868.372C793.495 867.151 790.395 869.53 790.832 872.614L808.603 997.813C809.109 1001.38 805.012 1003.75 802.176 1001.52L702.636 923.534C700.184 921.613 696.574 923.109 696.199 926.201L680.96 1051.73C680.526 1055.31 675.956 1056.53 673.791 1053.65L597.829 952.559C595.957 950.069 592.083 950.579 590.92 953.469L543.711 1070.78C542.366 1074.12 537.634 1074.12 536.289 1070.78L489.08 953.469C487.917 950.579 484.043 950.069 482.171 952.559L406.209 1053.65C404.044 1056.53 399.474 1055.31 399.04 1051.73L383.801 926.201C383.426 923.109 379.816 921.613 377.364 923.534L277.824 1001.52C274.988 1003.75 270.891 1001.38 271.397 997.813L289.168 872.614C289.605 869.53 286.505 867.151 283.639 868.372L167.306 917.941C163.992 919.354 160.646 916.008 162.059 912.694L211.628 796.361C212.849 793.495 210.47 790.395 207.386 790.832L82.1873 808.603C78.6203 809.109 76.2545 805.012 78.4765 802.176L156.465 702.636C158.387 700.184 156.891 696.574 153.799 696.199L28.2672 680.96C24.6908 680.526 23.4661 675.956 26.3463 673.791L127.441 597.829C129.931 595.957 129.421 592.083 126.531 590.92L9.22095 543.711C5.87873 542.366 5.87872 537.634 9.22094 536.289L126.531 489.08C129.421 487.917 129.931 484.043 127.441 482.171L26.3464 406.209C23.4661 404.044 24.6907 399.474 28.2672 399.04L153.799 383.801C156.891 383.426 158.387 379.816 156.465 377.364L78.4765 277.824C76.2545 274.988 78.6203 270.891 82.1872 271.397L207.386 289.168C210.47 289.605 212.849 286.505 211.628 283.639L162.059 167.306C160.646 163.992 163.992 160.646 167.306 162.059L283.639 211.628C286.505 212.849 289.605 210.47 289.168 207.386L271.397 82.1873C270.891 78.6203 274.988 76.2545 277.824 78.4765L377.364 156.465C379.816 158.387 383.426 156.891 383.801 153.799L399.04 28.2672C399.474 24.6908 404.044 23.4661 406.209 26.3463L482.171 127.441C484.043 129.931 487.917 129.421 489.08 126.531L536.289 9.22095Z" fill="#FF8A22"/>
</g>
<defs>
<clipPath id="clip0_8_2066">
<rect width="1080" height="1080" fill="white"/>
</clipPath>
</defs>
</svg>
