<svg viewBox="0 0 1080 1080" fill="none" xmlns="http://www.w3.org/2000/svg">
<g clip-path="url(#clip0_8_2057)">
<path fill-rule="evenodd" clip-rule="evenodd" d="M393.829 170.555L393.829 170.555L400.468 214.394L302.059 88.102C276.246 54.9742 263.339 38.4103 249.13 28.6231C214.999 5.11399 170.675 2.37437 133.909 21.5013C118.602 29.4641 103.754 44.3125 74.0574 74.0091L74.0573 74.0092C44.3606 103.706 29.5123 118.554 21.5495 133.861C2.42253 170.627 5.16215 214.951 28.6713 249.082C38.4585 263.291 55.0223 276.198 88.1501 302.011L214.531 400.489L170.555 393.829C132.323 388.039 113.208 385.144 97.5982 387.168C53.3 392.912 16.6504 424.429 4.33839 467.368C0 482.498 0 501.832 0 540.5C0 579.168 0 598.502 4.33839 613.632C16.6504 656.571 53.3 688.088 97.5982 693.832C113.207 695.856 132.322 692.961 170.552 687.172L170.555 687.171L170.555 687.171L212.801 680.773L88.102 777.94C54.9742 803.754 38.4103 816.661 28.6232 830.87C5.11403 865.001 2.37441 909.325 21.5014 946.091C29.4641 961.398 44.3124 976.246 74.0088 1005.94L74.0092 1005.94L74.0099 1005.94L74.0106 1005.94L74.0113 1005.94C103.707 1035.64 118.555 1050.49 133.861 1058.45C170.627 1077.58 214.951 1074.84 249.082 1051.33C263.291 1041.54 276.198 1024.98 302.011 991.85L400.489 865.469L393.829 909.445C388.039 947.677 385.144 966.792 387.168 982.402C392.912 1026.7 424.429 1063.35 467.368 1075.66C482.498 1080 501.832 1080 540.5 1080C579.168 1080 598.502 1080 613.632 1075.66C656.571 1063.35 688.088 1026.7 693.832 982.402C695.856 966.793 692.961 947.678 687.172 909.448L687.171 909.445L687.171 909.445L680.751 867.05L778.022 991.883L778.022 991.884C803.836 1025.01 816.742 1041.57 830.952 1051.36C865.083 1074.87 909.406 1077.61 946.173 1058.48C961.479 1050.52 976.327 1035.67 1006.02 1005.98L1006.02 1005.98C1035.72 976.279 1050.57 961.431 1058.53 946.124C1077.66 909.358 1074.92 865.035 1051.41 830.903C1041.62 816.694 1025.06 803.787 991.931 777.974L867.187 680.772L909.445 687.171L909.446 687.171C947.677 692.961 966.793 695.856 982.402 693.832C1026.7 688.088 1063.35 656.571 1075.66 613.632C1080 598.502 1080 579.168 1080 540.5C1080 501.832 1080 482.498 1075.66 467.368C1063.35 424.429 1026.7 392.912 982.402 387.168C966.792 385.144 947.677 388.039 909.445 393.829L865.457 400.49L991.883 301.978L991.884 301.977L991.886 301.976C1025.01 276.164 1041.58 263.257 1051.36 249.048C1074.87 214.917 1077.61 170.594 1058.48 133.827C1050.52 118.521 1035.67 103.673 1005.98 73.9781L1005.98 73.9762L1005.98 73.9759C976.279 44.2792 961.431 29.4309 946.124 21.4681C909.358 2.3411 865.035 5.08072 830.903 28.5899C816.694 38.377 803.787 54.9409 777.974 88.0687L680.772 212.813L687.171 170.555L687.171 170.554C692.961 132.323 695.856 113.207 693.832 97.5982C688.088 53.3 656.571 16.6504 613.632 4.33839C598.502 0 579.168 0 540.5 0C501.832 0 482.498 0 467.368 4.33839C424.429 16.6504 392.912 53.3 387.168 97.5982C385.144 113.207 388.039 132.323 393.829 170.553L393.829 170.555Z" fill="#F1FF48"/>
</g>
<defs>
<clipPath id="clip0_8_2057">
<rect width="1080" height="1080" fill="white"/>
</clipPath>
</defs>
</svg>
