<svg width="360" height="1251" viewBox="0 0 360 1251" fill="none" xmlns="http://www.w3.org/2000/svg">
<rect width="360" height="78" transform="translate(0 1170)" fill="#11D861"/>
<path d="M15.262 1181.88L17.524 1190.58L28.486 1187.54V1238H39.1V1176.66H31.618L15.262 1181.88ZM79.2491 1186.41L62.8061 1203.9L64.5461 1210.59H69.5051C73.8551 1210.59 77.2771 1211.41 79.7711 1213.03C82.2651 1214.65 83.5121 1217 83.5121 1220.08C83.5121 1222.92 82.4971 1225.18 80.4671 1226.86C78.4951 1228.55 76.0011 1229.39 72.9851 1229.39C69.5631 1229.39 66.5761 1228.72 64.0241 1227.39C61.5301 1225.99 59.1811 1223.99 56.9771 1221.38L49.4951 1228.34C52.1051 1231.47 55.2951 1234.06 59.0651 1236.09C62.8931 1238.06 67.4751 1239.04 72.8111 1239.04C75.9431 1239.04 78.8141 1238.58 81.4241 1237.65C84.0921 1236.67 86.3541 1235.33 88.2101 1233.65C90.0661 1231.91 91.5161 1229.88 92.5601 1227.56C93.6041 1225.18 94.1261 1222.57 94.1261 1219.73C94.1261 1216.89 93.6331 1214.45 92.6471 1212.42C91.6611 1210.39 90.3271 1208.71 88.6451 1207.38C87.0211 1205.98 85.1071 1204.91 82.9031 1204.16C80.7571 1203.34 78.5241 1202.79 76.2041 1202.5L93.1691 1185.1V1177.1H52.8881V1186.41H79.2491ZM124.59 1185.8C127.374 1185.8 129.694 1186.64 131.55 1188.32C133.464 1189.95 134.421 1192.27 134.421 1195.28C134.421 1196.67 134.218 1197.98 133.812 1199.2C133.406 1200.42 132.739 1201.66 131.811 1202.94C130.941 1204.21 129.781 1205.58 128.331 1207.03C126.881 1208.42 125.112 1209.99 123.024 1211.73L102.057 1229.56V1238H146.079V1228.6H117.108L129.636 1218.16C132.304 1215.96 134.624 1213.93 136.596 1212.07C138.626 1210.22 140.279 1208.39 141.555 1206.59C142.889 1204.79 143.875 1202.94 144.513 1201.02C145.151 1199.11 145.47 1196.94 145.47 1194.5C145.47 1191.77 144.977 1189.31 143.991 1187.1C143.063 1184.84 141.729 1182.9 139.989 1181.28C138.249 1179.65 136.132 1178.4 133.638 1177.53C131.144 1176.66 128.389 1176.23 125.373 1176.23C122.647 1176.23 120.211 1176.52 118.065 1177.1C115.977 1177.68 114.034 1178.52 112.236 1179.62C110.496 1180.67 108.872 1182 107.364 1183.62C105.856 1185.19 104.377 1186.99 102.927 1189.02L110.496 1194.93C112.874 1191.86 115.107 1189.57 117.195 1188.06C119.341 1186.55 121.806 1185.8 124.59 1185.8ZM152.368 1246.18L153.499 1250.62C157.907 1250.27 161.242 1248.99 163.504 1246.79C165.766 1244.58 166.897 1241.05 166.897 1236.17V1226.08H155.326V1238H159.763C160.169 1242.41 157.704 1245.13 152.368 1246.18ZM208.009 1176.66L174.166 1216.68L176.167 1224.34H206.878V1238H217.144V1224.34H225.844V1215.55H217.144V1176.66H208.009ZM206.878 1215.55H186.868L206.878 1191.45V1215.55ZM279.146 1221.12C279.146 1217.47 278.131 1214.48 276.101 1212.16C274.129 1209.84 271.49 1207.93 268.184 1206.42C270.736 1205.08 272.853 1203.34 274.535 1201.2C276.217 1198.99 277.058 1196.18 277.058 1192.76C277.058 1190.44 276.507 1188.26 275.405 1186.23C274.361 1184.2 272.911 1182.46 271.055 1181.01C269.199 1179.51 266.966 1178.35 264.356 1177.53C261.746 1176.66 258.933 1176.23 255.917 1176.23C252.843 1176.23 250.001 1176.66 247.391 1177.53C244.839 1178.35 242.635 1179.51 240.779 1181.01C238.923 1182.46 237.444 1184.2 236.342 1186.23C235.298 1188.26 234.776 1190.44 234.776 1192.76C234.776 1196.18 235.617 1198.99 237.299 1201.2C238.981 1203.34 241.098 1205.08 243.65 1206.42C240.17 1207.87 237.473 1209.78 235.559 1212.16C233.645 1214.54 232.688 1217.61 232.688 1221.38C232.688 1223.99 233.268 1226.4 234.428 1228.6C235.588 1230.75 237.212 1232.58 239.3 1234.08C241.388 1235.59 243.853 1236.78 246.695 1237.65C249.537 1238.46 252.611 1238.87 255.917 1238.87C259.223 1238.87 262.297 1238.46 265.139 1237.65C267.981 1236.84 270.446 1235.68 272.534 1234.17C274.622 1232.61 276.246 1230.72 277.406 1228.52C278.566 1226.31 279.146 1223.85 279.146 1221.12ZM266.792 1193.8C266.792 1196.47 265.748 1198.65 263.66 1200.33C261.63 1202.01 259.049 1202.85 255.917 1202.85C252.785 1202.85 250.175 1202.01 248.087 1200.33C246.057 1198.65 245.042 1196.44 245.042 1193.72C245.042 1191.34 246.028 1189.34 248 1187.71C249.972 1186.03 252.611 1185.19 255.917 1185.19C259.223 1185.19 261.862 1186.03 263.834 1187.71C265.806 1189.34 266.792 1191.37 266.792 1193.8ZM268.706 1220.69C268.706 1223.3 267.575 1225.5 265.313 1227.3C263.051 1229.04 259.919 1229.91 255.917 1229.91C251.915 1229.91 248.783 1229.04 246.521 1227.3C244.259 1225.5 243.128 1223.3 243.128 1220.69C243.128 1219.29 243.447 1218.02 244.085 1216.86C244.781 1215.7 245.68 1214.71 246.782 1213.9C247.942 1213.09 249.305 1212.48 250.871 1212.07C252.437 1211.61 254.119 1211.38 255.917 1211.38C257.715 1211.38 259.397 1211.61 260.963 1212.07C262.529 1212.48 263.863 1213.09 264.965 1213.9C266.125 1214.71 267.024 1215.7 267.662 1216.86C268.358 1218.02 268.706 1219.29 268.706 1220.69ZM339.601 1207.46C339.601 1203.11 338.963 1199.02 337.687 1195.2C336.469 1191.37 334.7 1188.03 332.38 1185.19C330.06 1182.35 327.276 1180.12 324.028 1178.49C320.78 1176.87 317.155 1176.06 313.153 1176.06C309.151 1176.06 305.497 1176.9 302.191 1178.58C298.943 1180.2 296.159 1182.44 293.839 1185.28C291.519 1188.12 289.721 1191.48 288.445 1195.37C287.169 1199.2 286.531 1203.29 286.531 1207.64C286.531 1211.99 287.14 1216.08 288.358 1219.9C289.634 1223.73 291.432 1227.07 293.752 1229.91C296.072 1232.75 298.856 1234.98 302.104 1236.61C305.352 1238.23 308.977 1239.04 312.979 1239.04C316.981 1239.04 320.606 1238.23 323.854 1236.61C327.16 1234.93 329.973 1232.66 332.293 1229.82C334.613 1226.98 336.411 1223.64 337.687 1219.82C338.963 1215.93 339.601 1211.81 339.601 1207.46ZM328.552 1207.64C328.552 1210.65 328.175 1213.49 327.421 1216.16C326.725 1218.77 325.71 1221.06 324.376 1223.04C323.042 1225.01 321.418 1226.57 319.504 1227.73C317.648 1228.84 315.531 1229.39 313.153 1229.39C310.775 1229.39 308.629 1228.84 306.715 1227.73C304.801 1226.57 303.148 1225.01 301.756 1223.04C300.422 1221.01 299.378 1218.69 298.624 1216.08C297.928 1213.41 297.58 1210.54 297.58 1207.46C297.58 1204.45 297.928 1201.6 298.624 1198.94C299.378 1196.27 300.422 1193.98 301.756 1192.06C303.09 1190.09 304.685 1188.55 306.541 1187.45C308.455 1186.29 310.601 1185.71 312.979 1185.71C315.357 1185.71 317.503 1186.29 319.417 1187.45C321.331 1188.61 322.955 1190.18 324.289 1192.15C325.681 1194.12 326.725 1196.44 327.421 1199.11C328.175 1201.78 328.552 1204.62 328.552 1207.64Z" fill="#000100"/>
<rect width="360" height="78" transform="translate(0 1092)" fill="#000100"/>
<path d="M15.262 1103.88L17.524 1112.58L28.486 1109.54V1160H39.1V1098.66H31.618L15.262 1103.88ZM79.2491 1108.41L62.8061 1125.9L64.5461 1132.59H69.5051C73.8551 1132.59 77.2771 1133.41 79.7711 1135.03C82.2651 1136.65 83.5121 1139 83.5121 1142.08C83.5121 1144.92 82.4971 1147.18 80.4671 1148.86C78.4951 1150.55 76.0011 1151.39 72.9851 1151.39C69.5631 1151.39 66.5761 1150.72 64.0241 1149.39C61.5301 1147.99 59.1811 1145.99 56.9771 1143.38L49.4951 1150.34C52.1051 1153.47 55.2951 1156.06 59.0651 1158.09C62.8931 1160.06 67.4751 1161.04 72.8111 1161.04C75.9431 1161.04 78.8141 1160.58 81.4241 1159.65C84.0921 1158.67 86.3541 1157.33 88.2101 1155.65C90.0661 1153.91 91.5161 1151.88 92.5601 1149.56C93.6041 1147.18 94.1261 1144.57 94.1261 1141.73C94.1261 1138.89 93.6331 1136.45 92.6471 1134.42C91.6611 1132.39 90.3271 1130.71 88.6451 1129.38C87.0211 1127.98 85.1071 1126.91 82.9031 1126.16C80.7571 1125.34 78.5241 1124.79 76.2041 1124.5L93.1691 1107.1V1099.1H52.8881V1108.41H79.2491ZM124.59 1107.8C127.374 1107.8 129.694 1108.64 131.55 1110.32C133.464 1111.95 134.421 1114.27 134.421 1117.28C134.421 1118.67 134.218 1119.98 133.812 1121.2C133.406 1122.42 132.739 1123.66 131.811 1124.94C130.941 1126.21 129.781 1127.58 128.331 1129.03C126.881 1130.42 125.112 1131.99 123.024 1133.73L102.057 1151.56V1160H146.079V1150.6H117.108L129.636 1140.16C132.304 1137.96 134.624 1135.93 136.596 1134.07C138.626 1132.22 140.279 1130.39 141.555 1128.59C142.889 1126.79 143.875 1124.94 144.513 1123.02C145.151 1121.11 145.47 1118.94 145.47 1116.5C145.47 1113.77 144.977 1111.31 143.991 1109.1C143.063 1106.84 141.729 1104.9 139.989 1103.28C138.249 1101.65 136.132 1100.4 133.638 1099.53C131.144 1098.66 128.389 1098.23 125.373 1098.23C122.647 1098.23 120.211 1098.52 118.065 1099.1C115.977 1099.68 114.034 1100.52 112.236 1101.62C110.496 1102.67 108.872 1104 107.364 1105.62C105.856 1107.19 104.377 1108.99 102.927 1111.02L110.496 1116.93C112.874 1113.86 115.107 1111.57 117.195 1110.06C119.341 1108.55 121.806 1107.8 124.59 1107.8ZM152.368 1168.18L153.499 1172.62C157.907 1172.27 161.242 1170.99 163.504 1168.79C165.766 1166.58 166.897 1163.05 166.897 1158.17V1148.08H155.326V1160H159.763C160.169 1164.41 157.704 1167.13 152.368 1168.18ZM208.009 1098.66L174.166 1138.68L176.167 1146.34H206.878V1160H217.144V1146.34H225.844V1137.55H217.144V1098.66H208.009ZM206.878 1137.55H186.868L206.878 1113.45V1137.55ZM279.146 1143.12C279.146 1139.47 278.131 1136.48 276.101 1134.16C274.129 1131.84 271.49 1129.93 268.184 1128.42C270.736 1127.08 272.853 1125.34 274.535 1123.2C276.217 1120.99 277.058 1118.18 277.058 1114.76C277.058 1112.44 276.507 1110.26 275.405 1108.23C274.361 1106.2 272.911 1104.46 271.055 1103.01C269.199 1101.51 266.966 1100.35 264.356 1099.53C261.746 1098.66 258.933 1098.23 255.917 1098.23C252.843 1098.23 250.001 1098.66 247.391 1099.53C244.839 1100.35 242.635 1101.51 240.779 1103.01C238.923 1104.46 237.444 1106.2 236.342 1108.23C235.298 1110.26 234.776 1112.44 234.776 1114.76C234.776 1118.18 235.617 1120.99 237.299 1123.2C238.981 1125.34 241.098 1127.08 243.65 1128.42C240.17 1129.87 237.473 1131.78 235.559 1134.16C233.645 1136.54 232.688 1139.61 232.688 1143.38C232.688 1145.99 233.268 1148.4 234.428 1150.6C235.588 1152.75 237.212 1154.58 239.3 1156.08C241.388 1157.59 243.853 1158.78 246.695 1159.65C249.537 1160.46 252.611 1160.87 255.917 1160.87C259.223 1160.87 262.297 1160.46 265.139 1159.65C267.981 1158.84 270.446 1157.68 272.534 1156.17C274.622 1154.61 276.246 1152.72 277.406 1150.52C278.566 1148.31 279.146 1145.85 279.146 1143.12ZM266.792 1115.8C266.792 1118.47 265.748 1120.65 263.66 1122.33C261.63 1124.01 259.049 1124.85 255.917 1124.85C252.785 1124.85 250.175 1124.01 248.087 1122.33C246.057 1120.65 245.042 1118.44 245.042 1115.72C245.042 1113.34 246.028 1111.34 248 1109.71C249.972 1108.03 252.611 1107.19 255.917 1107.19C259.223 1107.19 261.862 1108.03 263.834 1109.71C265.806 1111.34 266.792 1113.37 266.792 1115.8ZM268.706 1142.69C268.706 1145.3 267.575 1147.5 265.313 1149.3C263.051 1151.04 259.919 1151.91 255.917 1151.91C251.915 1151.91 248.783 1151.04 246.521 1149.3C244.259 1147.5 243.128 1145.3 243.128 1142.69C243.128 1141.29 243.447 1140.02 244.085 1138.86C244.781 1137.7 245.68 1136.71 246.782 1135.9C247.942 1135.09 249.305 1134.48 250.871 1134.07C252.437 1133.61 254.119 1133.38 255.917 1133.38C257.715 1133.38 259.397 1133.61 260.963 1134.07C262.529 1134.48 263.863 1135.09 264.965 1135.9C266.125 1136.71 267.024 1137.7 267.662 1138.86C268.358 1140.02 268.706 1141.29 268.706 1142.69ZM339.601 1129.46C339.601 1125.11 338.963 1121.02 337.687 1117.2C336.469 1113.37 334.7 1110.03 332.38 1107.19C330.06 1104.35 327.276 1102.12 324.028 1100.49C320.78 1098.87 317.155 1098.06 313.153 1098.06C309.151 1098.06 305.497 1098.9 302.191 1100.58C298.943 1102.2 296.159 1104.44 293.839 1107.28C291.519 1110.12 289.721 1113.48 288.445 1117.37C287.169 1121.2 286.531 1125.29 286.531 1129.64C286.531 1133.99 287.14 1138.08 288.358 1141.9C289.634 1145.73 291.432 1149.07 293.752 1151.91C296.072 1154.75 298.856 1156.98 302.104 1158.61C305.352 1160.23 308.977 1161.04 312.979 1161.04C316.981 1161.04 320.606 1160.23 323.854 1158.61C327.16 1156.93 329.973 1154.66 332.293 1151.82C334.613 1148.98 336.411 1145.64 337.687 1141.82C338.963 1137.93 339.601 1133.81 339.601 1129.46ZM328.552 1129.64C328.552 1132.65 328.175 1135.49 327.421 1138.16C326.725 1140.77 325.71 1143.06 324.376 1145.04C323.042 1147.01 321.418 1148.57 319.504 1149.73C317.648 1150.84 315.531 1151.39 313.153 1151.39C310.775 1151.39 308.629 1150.84 306.715 1149.73C304.801 1148.57 303.148 1147.01 301.756 1145.04C300.422 1143.01 299.378 1140.69 298.624 1138.08C297.928 1135.41 297.58 1132.54 297.58 1129.46C297.58 1126.45 297.928 1123.6 298.624 1120.94C299.378 1118.27 300.422 1115.98 301.756 1114.06C303.09 1112.09 304.685 1110.55 306.541 1109.45C308.455 1108.29 310.601 1107.71 312.979 1107.71C315.357 1107.71 317.503 1108.29 319.417 1109.45C321.331 1110.61 322.955 1112.18 324.289 1114.15C325.681 1116.12 326.725 1118.44 327.421 1121.11C328.175 1123.78 328.552 1126.62 328.552 1129.64Z" fill="#FF8B1F"/>
<rect width="360" height="78" transform="translate(0 1014)" fill="#6900BA"/>
<path d="M15.262 1025.88L17.524 1034.58L28.486 1031.54V1082H39.1V1020.66H31.618L15.262 1025.88ZM79.2491 1030.41L62.8061 1047.9L64.5461 1054.59H69.5051C73.8551 1054.59 77.2771 1055.41 79.7711 1057.03C82.2651 1058.65 83.5121 1061 83.5121 1064.08C83.5121 1066.92 82.4971 1069.18 80.4671 1070.86C78.4951 1072.55 76.0011 1073.39 72.9851 1073.39C69.5631 1073.39 66.5761 1072.72 64.0241 1071.39C61.5301 1069.99 59.1811 1067.99 56.9771 1065.38L49.4951 1072.34C52.1051 1075.47 55.2951 1078.06 59.0651 1080.09C62.8931 1082.06 67.4751 1083.04 72.8111 1083.04C75.9431 1083.04 78.8141 1082.58 81.4241 1081.65C84.0921 1080.67 86.3541 1079.33 88.2101 1077.65C90.0661 1075.91 91.5161 1073.88 92.5601 1071.56C93.6041 1069.18 94.1261 1066.57 94.1261 1063.73C94.1261 1060.89 93.6331 1058.45 92.6471 1056.42C91.6611 1054.39 90.3271 1052.71 88.6451 1051.38C87.0211 1049.98 85.1071 1048.91 82.9031 1048.16C80.7571 1047.34 78.5241 1046.79 76.2041 1046.5L93.1691 1029.1V1021.1H52.8881V1030.41H79.2491ZM124.59 1029.8C127.374 1029.8 129.694 1030.64 131.55 1032.32C133.464 1033.95 134.421 1036.27 134.421 1039.28C134.421 1040.67 134.218 1041.98 133.812 1043.2C133.406 1044.42 132.739 1045.66 131.811 1046.94C130.941 1048.21 129.781 1049.58 128.331 1051.03C126.881 1052.42 125.112 1053.99 123.024 1055.73L102.057 1073.56V1082H146.079V1072.6H117.108L129.636 1062.16C132.304 1059.96 134.624 1057.93 136.596 1056.07C138.626 1054.22 140.279 1052.39 141.555 1050.59C142.889 1048.79 143.875 1046.94 144.513 1045.02C145.151 1043.11 145.47 1040.94 145.47 1038.5C145.47 1035.77 144.977 1033.31 143.991 1031.1C143.063 1028.84 141.729 1026.9 139.989 1025.28C138.249 1023.65 136.132 1022.4 133.638 1021.53C131.144 1020.66 128.389 1020.23 125.373 1020.23C122.647 1020.23 120.211 1020.52 118.065 1021.1C115.977 1021.68 114.034 1022.52 112.236 1023.62C110.496 1024.67 108.872 1026 107.364 1027.62C105.856 1029.19 104.377 1030.99 102.927 1033.02L110.496 1038.93C112.874 1035.86 115.107 1033.57 117.195 1032.06C119.341 1030.55 121.806 1029.8 124.59 1029.8ZM152.368 1090.18L153.499 1094.62C157.907 1094.27 161.242 1092.99 163.504 1090.79C165.766 1088.58 166.897 1085.05 166.897 1080.17V1070.08H155.326V1082H159.763C160.169 1086.41 157.704 1089.13 152.368 1090.18ZM208.009 1020.66L174.166 1060.68L176.167 1068.34H206.878V1082H217.144V1068.34H225.844V1059.55H217.144V1020.66H208.009ZM206.878 1059.55H186.868L206.878 1035.45V1059.55ZM279.146 1065.12C279.146 1061.47 278.131 1058.48 276.101 1056.16C274.129 1053.84 271.49 1051.93 268.184 1050.42C270.736 1049.08 272.853 1047.34 274.535 1045.2C276.217 1042.99 277.058 1040.18 277.058 1036.76C277.058 1034.44 276.507 1032.26 275.405 1030.23C274.361 1028.2 272.911 1026.46 271.055 1025.01C269.199 1023.51 266.966 1022.35 264.356 1021.53C261.746 1020.66 258.933 1020.23 255.917 1020.23C252.843 1020.23 250.001 1020.66 247.391 1021.53C244.839 1022.35 242.635 1023.51 240.779 1025.01C238.923 1026.46 237.444 1028.2 236.342 1030.23C235.298 1032.26 234.776 1034.44 234.776 1036.76C234.776 1040.18 235.617 1042.99 237.299 1045.2C238.981 1047.34 241.098 1049.08 243.65 1050.42C240.17 1051.87 237.473 1053.78 235.559 1056.16C233.645 1058.54 232.688 1061.61 232.688 1065.38C232.688 1067.99 233.268 1070.4 234.428 1072.6C235.588 1074.75 237.212 1076.58 239.3 1078.08C241.388 1079.59 243.853 1080.78 246.695 1081.65C249.537 1082.46 252.611 1082.87 255.917 1082.87C259.223 1082.87 262.297 1082.46 265.139 1081.65C267.981 1080.84 270.446 1079.68 272.534 1078.17C274.622 1076.61 276.246 1074.72 277.406 1072.52C278.566 1070.31 279.146 1067.85 279.146 1065.12ZM266.792 1037.8C266.792 1040.47 265.748 1042.65 263.66 1044.33C261.63 1046.01 259.049 1046.85 255.917 1046.85C252.785 1046.85 250.175 1046.01 248.087 1044.33C246.057 1042.65 245.042 1040.44 245.042 1037.72C245.042 1035.34 246.028 1033.34 248 1031.71C249.972 1030.03 252.611 1029.19 255.917 1029.19C259.223 1029.19 261.862 1030.03 263.834 1031.71C265.806 1033.34 266.792 1035.37 266.792 1037.8ZM268.706 1064.69C268.706 1067.3 267.575 1069.5 265.313 1071.3C263.051 1073.04 259.919 1073.91 255.917 1073.91C251.915 1073.91 248.783 1073.04 246.521 1071.3C244.259 1069.5 243.128 1067.3 243.128 1064.69C243.128 1063.29 243.447 1062.02 244.085 1060.86C244.781 1059.7 245.68 1058.71 246.782 1057.9C247.942 1057.09 249.305 1056.48 250.871 1056.07C252.437 1055.61 254.119 1055.38 255.917 1055.38C257.715 1055.38 259.397 1055.61 260.963 1056.07C262.529 1056.48 263.863 1057.09 264.965 1057.9C266.125 1058.71 267.024 1059.7 267.662 1060.86C268.358 1062.02 268.706 1063.29 268.706 1064.69ZM339.601 1051.46C339.601 1047.11 338.963 1043.02 337.687 1039.2C336.469 1035.37 334.7 1032.03 332.38 1029.19C330.06 1026.35 327.276 1024.12 324.028 1022.49C320.78 1020.87 317.155 1020.06 313.153 1020.06C309.151 1020.06 305.497 1020.9 302.191 1022.58C298.943 1024.2 296.159 1026.44 293.839 1029.28C291.519 1032.12 289.721 1035.48 288.445 1039.37C287.169 1043.2 286.531 1047.29 286.531 1051.64C286.531 1055.99 287.14 1060.08 288.358 1063.9C289.634 1067.73 291.432 1071.07 293.752 1073.91C296.072 1076.75 298.856 1078.98 302.104 1080.61C305.352 1082.23 308.977 1083.04 312.979 1083.04C316.981 1083.04 320.606 1082.23 323.854 1080.61C327.16 1078.93 329.973 1076.66 332.293 1073.82C334.613 1070.98 336.411 1067.64 337.687 1063.82C338.963 1059.93 339.601 1055.81 339.601 1051.46ZM328.552 1051.64C328.552 1054.65 328.175 1057.49 327.421 1060.16C326.725 1062.77 325.71 1065.06 324.376 1067.04C323.042 1069.01 321.418 1070.57 319.504 1071.73C317.648 1072.84 315.531 1073.39 313.153 1073.39C310.775 1073.39 308.629 1072.84 306.715 1071.73C304.801 1070.57 303.148 1069.01 301.756 1067.04C300.422 1065.01 299.378 1062.69 298.624 1060.08C297.928 1057.41 297.58 1054.54 297.58 1051.46C297.58 1048.45 297.928 1045.6 298.624 1042.94C299.378 1040.27 300.422 1037.98 301.756 1036.06C303.09 1034.09 304.685 1032.55 306.541 1031.45C308.455 1030.29 310.601 1029.71 312.979 1029.71C315.357 1029.71 317.503 1030.29 319.417 1031.45C321.331 1032.61 322.955 1034.18 324.289 1036.15C325.681 1038.12 326.725 1040.44 327.421 1043.11C328.175 1045.78 328.552 1048.62 328.552 1051.64Z" fill="#F2FF47"/>
<rect width="360" height="78" transform="translate(0 936)" fill="#FF8B1F"/>
<path d="M15.262 947.885L17.524 956.585L28.486 953.54V1004H39.1V942.665H31.618L15.262 947.885ZM79.2491 952.409L62.8061 969.896L64.5461 976.595H69.5051C73.8551 976.595 77.2771 977.407 79.7711 979.031C82.2651 980.655 83.5121 983.004 83.5121 986.078C83.5121 988.92 82.4971 991.182 80.4671 992.864C78.4951 994.546 76.0011 995.387 72.9851 995.387C69.5631 995.387 66.5761 994.72 64.0241 993.386C61.5301 991.994 59.1811 989.993 56.9771 987.383L49.4951 994.343C52.1051 997.475 55.2951 1000.06 59.0651 1002.09C62.8931 1004.06 67.4751 1005.04 72.8111 1005.04C75.9431 1005.04 78.8141 1004.58 81.4241 1003.65C84.0921 1002.67 86.3541 1001.33 88.2101 999.65C90.0661 997.91 91.5161 995.88 92.5601 993.56C93.6041 991.182 94.1261 988.572 94.1261 985.73C94.1261 982.888 93.6331 980.452 92.6471 978.422C91.6611 976.392 90.3271 974.71 88.6451 973.376C87.0211 971.984 85.1071 970.911 82.9031 970.157C80.7571 969.345 78.5241 968.794 76.2041 968.504L93.1691 951.104V943.1H52.8881V952.409H79.2491ZM124.59 951.8C127.374 951.8 129.694 952.641 131.55 954.323C133.464 955.947 134.421 958.267 134.421 961.283C134.421 962.675 134.218 963.98 133.812 965.198C133.406 966.416 132.739 967.663 131.811 968.939C130.941 970.215 129.781 971.578 128.331 973.028C126.881 974.42 125.112 975.986 123.024 977.726L102.057 995.561V1004H146.079V994.604H117.108L129.636 984.164C132.304 981.96 134.624 979.93 136.596 978.074C138.626 976.218 140.279 974.391 141.555 972.593C142.889 970.795 143.875 968.939 144.513 967.025C145.151 965.111 145.47 962.936 145.47 960.5C145.47 957.774 144.977 955.309 143.991 953.105C143.063 950.843 141.729 948.9 139.989 947.276C138.249 945.652 136.132 944.405 133.638 943.535C131.144 942.665 128.389 942.23 125.373 942.23C122.647 942.23 120.211 942.52 118.065 943.1C115.977 943.68 114.034 944.521 112.236 945.623C110.496 946.667 108.872 948.001 107.364 949.625C105.856 951.191 104.377 952.989 102.927 955.019L110.496 960.935C112.874 957.861 115.107 955.57 117.195 954.062C119.341 952.554 121.806 951.8 124.59 951.8ZM152.368 1012.18L153.499 1016.62C157.907 1016.27 161.242 1014.99 163.504 1012.79C165.766 1010.58 166.897 1007.05 166.897 1002.17V992.081H155.326V1004H159.763C160.169 1008.41 157.704 1011.13 152.368 1012.18ZM208.009 942.665L174.166 982.685L176.167 990.341H206.878V1004H217.144V990.341H225.844V981.554H217.144V942.665H208.009ZM206.878 981.554H186.868L206.878 957.455V981.554ZM279.146 987.122C279.146 983.468 278.131 980.481 276.101 978.161C274.129 975.841 271.49 973.927 268.184 972.419C270.736 971.085 272.853 969.345 274.535 967.199C276.217 964.995 277.058 962.182 277.058 958.76C277.058 956.44 276.507 954.265 275.405 952.235C274.361 950.205 272.911 948.465 271.055 947.015C269.199 945.507 266.966 944.347 264.356 943.535C261.746 942.665 258.933 942.23 255.917 942.23C252.843 942.23 250.001 942.665 247.391 943.535C244.839 944.347 242.635 945.507 240.779 947.015C238.923 948.465 237.444 950.205 236.342 952.235C235.298 954.265 234.776 956.44 234.776 958.76C234.776 962.182 235.617 964.995 237.299 967.199C238.981 969.345 241.098 971.085 243.65 972.419C240.17 973.869 237.473 975.783 235.559 978.161C233.645 980.539 232.688 983.613 232.688 987.383C232.688 989.993 233.268 992.4 234.428 994.604C235.588 996.75 237.212 998.577 239.3 1000.08C241.388 1001.59 243.853 1002.78 246.695 1003.65C249.537 1004.46 252.611 1004.87 255.917 1004.87C259.223 1004.87 262.297 1004.46 265.139 1003.65C267.981 1002.84 270.446 1001.68 272.534 1000.17C274.622 998.606 276.246 996.721 277.406 994.517C278.566 992.313 279.146 989.848 279.146 987.122ZM266.792 959.804C266.792 962.472 265.748 964.647 263.66 966.329C261.63 968.011 259.049 968.852 255.917 968.852C252.785 968.852 250.175 968.011 248.087 966.329C246.057 964.647 245.042 962.443 245.042 959.717C245.042 957.339 246.028 955.338 248 953.714C249.972 952.032 252.611 951.191 255.917 951.191C259.223 951.191 261.862 952.032 263.834 953.714C265.806 955.338 266.792 957.368 266.792 959.804ZM268.706 986.687C268.706 989.297 267.575 991.501 265.313 993.299C263.051 995.039 259.919 995.909 255.917 995.909C251.915 995.909 248.783 995.039 246.521 993.299C244.259 991.501 243.128 989.297 243.128 986.687C243.128 985.295 243.447 984.019 244.085 982.859C244.781 981.699 245.68 980.713 246.782 979.901C247.942 979.089 249.305 978.48 250.871 978.074C252.437 977.61 254.119 977.378 255.917 977.378C257.715 977.378 259.397 977.61 260.963 978.074C262.529 978.48 263.863 979.089 264.965 979.901C266.125 980.713 267.024 981.699 267.662 982.859C268.358 984.019 268.706 985.295 268.706 986.687ZM339.601 973.463C339.601 969.113 338.963 965.024 337.687 961.196C336.469 957.368 334.7 954.033 332.38 951.191C330.06 948.349 327.276 946.116 324.028 944.492C320.78 942.868 317.155 942.056 313.153 942.056C309.151 942.056 305.497 942.897 302.191 944.579C298.943 946.203 296.159 948.436 293.839 951.278C291.519 954.12 289.721 957.484 288.445 961.37C287.169 965.198 286.531 969.287 286.531 973.637C286.531 977.987 287.14 982.076 288.358 985.904C289.634 989.732 291.432 993.067 293.752 995.909C296.072 998.751 298.856 1000.98 302.104 1002.61C305.352 1004.23 308.977 1005.04 312.979 1005.04C316.981 1005.04 320.606 1004.23 323.854 1002.61C327.16 1000.93 329.973 998.664 332.293 995.822C334.613 992.98 336.411 989.645 337.687 985.817C338.963 981.931 339.601 977.813 339.601 973.463ZM328.552 973.637C328.552 976.653 328.175 979.495 327.421 982.163C326.725 984.773 325.71 987.064 324.376 989.036C323.042 991.008 321.418 992.574 319.504 993.734C317.648 994.836 315.531 995.387 313.153 995.387C310.775 995.387 308.629 994.836 306.715 993.734C304.801 992.574 303.148 991.008 301.756 989.036C300.422 987.006 299.378 984.686 298.624 982.076C297.928 979.408 297.58 976.537 297.58 973.463C297.58 970.447 297.928 967.605 298.624 964.937C299.378 962.269 300.422 959.978 301.756 958.064C303.09 956.092 304.685 954.555 306.541 953.453C308.455 952.293 310.601 951.713 312.979 951.713C315.357 951.713 317.503 952.293 319.417 953.453C321.331 954.613 322.955 956.179 324.289 958.151C325.681 960.123 326.725 962.443 327.421 965.111C328.175 967.779 328.552 970.621 328.552 973.637Z" fill="#000100"/>
<rect width="360" height="78" transform="translate(0 858)" fill="#F675C2"/>
<path d="M15.262 869.885L17.524 878.585L28.486 875.54V926H39.1V864.665H31.618L15.262 869.885ZM79.2491 874.409L62.8061 891.896L64.5461 898.595H69.5051C73.8551 898.595 77.2771 899.407 79.7711 901.031C82.2651 902.655 83.5121 905.004 83.5121 908.078C83.5121 910.92 82.4971 913.182 80.4671 914.864C78.4951 916.546 76.0011 917.387 72.9851 917.387C69.5631 917.387 66.5761 916.72 64.0241 915.386C61.5301 913.994 59.1811 911.993 56.9771 909.383L49.4951 916.343C52.1051 919.475 55.2951 922.056 59.0651 924.086C62.8931 926.058 67.4751 927.044 72.8111 927.044C75.9431 927.044 78.8141 926.58 81.4241 925.652C84.0921 924.666 86.3541 923.332 88.2101 921.65C90.0661 919.91 91.5161 917.88 92.5601 915.56C93.6041 913.182 94.1261 910.572 94.1261 907.73C94.1261 904.888 93.6331 902.452 92.6471 900.422C91.6611 898.392 90.3271 896.71 88.6451 895.376C87.0211 893.984 85.1071 892.911 82.9031 892.157C80.7571 891.345 78.5241 890.794 76.2041 890.504L93.1691 873.104V865.1H52.8881V874.409H79.2491ZM124.59 873.8C127.374 873.8 129.694 874.641 131.55 876.323C133.464 877.947 134.421 880.267 134.421 883.283C134.421 884.675 134.218 885.98 133.812 887.198C133.406 888.416 132.739 889.663 131.811 890.939C130.941 892.215 129.781 893.578 128.331 895.028C126.881 896.42 125.112 897.986 123.024 899.726L102.057 917.561V926H146.079V916.604H117.108L129.636 906.164C132.304 903.96 134.624 901.93 136.596 900.074C138.626 898.218 140.279 896.391 141.555 894.593C142.889 892.795 143.875 890.939 144.513 889.025C145.151 887.111 145.47 884.936 145.47 882.5C145.47 879.774 144.977 877.309 143.991 875.105C143.063 872.843 141.729 870.9 139.989 869.276C138.249 867.652 136.132 866.405 133.638 865.535C131.144 864.665 128.389 864.23 125.373 864.23C122.647 864.23 120.211 864.52 118.065 865.1C115.977 865.68 114.034 866.521 112.236 867.623C110.496 868.667 108.872 870.001 107.364 871.625C105.856 873.191 104.377 874.989 102.927 877.019L110.496 882.935C112.874 879.861 115.107 877.57 117.195 876.062C119.341 874.554 121.806 873.8 124.59 873.8ZM152.368 934.178L153.499 938.615C157.907 938.267 161.242 936.991 163.504 934.787C165.766 932.583 166.897 929.045 166.897 924.173V914.081H155.326V926H159.763C160.169 930.408 157.704 933.134 152.368 934.178ZM208.009 864.665L174.166 904.685L176.167 912.341H206.878V926H217.144V912.341H225.844V903.554H217.144V864.665H208.009ZM206.878 903.554H186.868L206.878 879.455V903.554ZM279.146 909.122C279.146 905.468 278.131 902.481 276.101 900.161C274.129 897.841 271.49 895.927 268.184 894.419C270.736 893.085 272.853 891.345 274.535 889.199C276.217 886.995 277.058 884.182 277.058 880.76C277.058 878.44 276.507 876.265 275.405 874.235C274.361 872.205 272.911 870.465 271.055 869.015C269.199 867.507 266.966 866.347 264.356 865.535C261.746 864.665 258.933 864.23 255.917 864.23C252.843 864.23 250.001 864.665 247.391 865.535C244.839 866.347 242.635 867.507 240.779 869.015C238.923 870.465 237.444 872.205 236.342 874.235C235.298 876.265 234.776 878.44 234.776 880.76C234.776 884.182 235.617 886.995 237.299 889.199C238.981 891.345 241.098 893.085 243.65 894.419C240.17 895.869 237.473 897.783 235.559 900.161C233.645 902.539 232.688 905.613 232.688 909.383C232.688 911.993 233.268 914.4 234.428 916.604C235.588 918.75 237.212 920.577 239.3 922.085C241.388 923.593 243.853 924.782 246.695 925.652C249.537 926.464 252.611 926.87 255.917 926.87C259.223 926.87 262.297 926.464 265.139 925.652C267.981 924.84 270.446 923.68 272.534 922.172C274.622 920.606 276.246 918.721 277.406 916.517C278.566 914.313 279.146 911.848 279.146 909.122ZM266.792 881.804C266.792 884.472 265.748 886.647 263.66 888.329C261.63 890.011 259.049 890.852 255.917 890.852C252.785 890.852 250.175 890.011 248.087 888.329C246.057 886.647 245.042 884.443 245.042 881.717C245.042 879.339 246.028 877.338 248 875.714C249.972 874.032 252.611 873.191 255.917 873.191C259.223 873.191 261.862 874.032 263.834 875.714C265.806 877.338 266.792 879.368 266.792 881.804ZM268.706 908.687C268.706 911.297 267.575 913.501 265.313 915.299C263.051 917.039 259.919 917.909 255.917 917.909C251.915 917.909 248.783 917.039 246.521 915.299C244.259 913.501 243.128 911.297 243.128 908.687C243.128 907.295 243.447 906.019 244.085 904.859C244.781 903.699 245.68 902.713 246.782 901.901C247.942 901.089 249.305 900.48 250.871 900.074C252.437 899.61 254.119 899.378 255.917 899.378C257.715 899.378 259.397 899.61 260.963 900.074C262.529 900.48 263.863 901.089 264.965 901.901C266.125 902.713 267.024 903.699 267.662 904.859C268.358 906.019 268.706 907.295 268.706 908.687ZM339.601 895.463C339.601 891.113 338.963 887.024 337.687 883.196C336.469 879.368 334.7 876.033 332.38 873.191C330.06 870.349 327.276 868.116 324.028 866.492C320.78 864.868 317.155 864.056 313.153 864.056C309.151 864.056 305.497 864.897 302.191 866.579C298.943 868.203 296.159 870.436 293.839 873.278C291.519 876.12 289.721 879.484 288.445 883.37C287.169 887.198 286.531 891.287 286.531 895.637C286.531 899.987 287.14 904.076 288.358 907.904C289.634 911.732 291.432 915.067 293.752 917.909C296.072 920.751 298.856 922.984 302.104 924.608C305.352 926.232 308.977 927.044 312.979 927.044C316.981 927.044 320.606 926.232 323.854 924.608C327.16 922.926 329.973 920.664 332.293 917.822C334.613 914.98 336.411 911.645 337.687 907.817C338.963 903.931 339.601 899.813 339.601 895.463ZM328.552 895.637C328.552 898.653 328.175 901.495 327.421 904.163C326.725 906.773 325.71 909.064 324.376 911.036C323.042 913.008 321.418 914.574 319.504 915.734C317.648 916.836 315.531 917.387 313.153 917.387C310.775 917.387 308.629 916.836 306.715 915.734C304.801 914.574 303.148 913.008 301.756 911.036C300.422 909.006 299.378 906.686 298.624 904.076C297.928 901.408 297.58 898.537 297.58 895.463C297.58 892.447 297.928 889.605 298.624 886.937C299.378 884.269 300.422 881.978 301.756 880.064C303.09 878.092 304.685 876.555 306.541 875.453C308.455 874.293 310.601 873.713 312.979 873.713C315.357 873.713 317.503 874.293 319.417 875.453C321.331 876.613 322.955 878.179 324.289 880.151C325.681 882.123 326.725 884.443 327.421 887.111C328.175 889.779 328.552 892.621 328.552 895.637Z" fill="#000100"/>
<rect width="360" height="78" transform="translate(0 780)" fill="#11D861"/>
<path d="M15.262 791.885L17.524 800.585L28.486 797.54V848H39.1V786.665H31.618L15.262 791.885ZM79.2491 796.409L62.8061 813.896L64.5461 820.595H69.5051C73.8551 820.595 77.2771 821.407 79.7711 823.031C82.2651 824.655 83.5121 827.004 83.5121 830.078C83.5121 832.92 82.4971 835.182 80.4671 836.864C78.4951 838.546 76.0011 839.387 72.9851 839.387C69.5631 839.387 66.5761 838.72 64.0241 837.386C61.5301 835.994 59.1811 833.993 56.9771 831.383L49.4951 838.343C52.1051 841.475 55.2951 844.056 59.0651 846.086C62.8931 848.058 67.4751 849.044 72.8111 849.044C75.9431 849.044 78.8141 848.58 81.4241 847.652C84.0921 846.666 86.3541 845.332 88.2101 843.65C90.0661 841.91 91.5161 839.88 92.5601 837.56C93.6041 835.182 94.1261 832.572 94.1261 829.73C94.1261 826.888 93.6331 824.452 92.6471 822.422C91.6611 820.392 90.3271 818.71 88.6451 817.376C87.0211 815.984 85.1071 814.911 82.9031 814.157C80.7571 813.345 78.5241 812.794 76.2041 812.504L93.1691 795.104V787.1H52.8881V796.409H79.2491ZM124.59 795.8C127.374 795.8 129.694 796.641 131.55 798.323C133.464 799.947 134.421 802.267 134.421 805.283C134.421 806.675 134.218 807.98 133.812 809.198C133.406 810.416 132.739 811.663 131.811 812.939C130.941 814.215 129.781 815.578 128.331 817.028C126.881 818.42 125.112 819.986 123.024 821.726L102.057 839.561V848H146.079V838.604H117.108L129.636 828.164C132.304 825.96 134.624 823.93 136.596 822.074C138.626 820.218 140.279 818.391 141.555 816.593C142.889 814.795 143.875 812.939 144.513 811.025C145.151 809.111 145.47 806.936 145.47 804.5C145.47 801.774 144.977 799.309 143.991 797.105C143.063 794.843 141.729 792.9 139.989 791.276C138.249 789.652 136.132 788.405 133.638 787.535C131.144 786.665 128.389 786.23 125.373 786.23C122.647 786.23 120.211 786.52 118.065 787.1C115.977 787.68 114.034 788.521 112.236 789.623C110.496 790.667 108.872 792.001 107.364 793.625C105.856 795.191 104.377 796.989 102.927 799.019L110.496 804.935C112.874 801.861 115.107 799.57 117.195 798.062C119.341 796.554 121.806 795.8 124.59 795.8ZM152.368 856.178L153.499 860.615C157.907 860.267 161.242 858.991 163.504 856.787C165.766 854.583 166.897 851.045 166.897 846.173V836.081H155.326V848H159.763C160.169 852.408 157.704 855.134 152.368 856.178ZM208.009 786.665L174.166 826.685L176.167 834.341H206.878V848H217.144V834.341H225.844V825.554H217.144V786.665H208.009ZM206.878 825.554H186.868L206.878 801.455V825.554ZM279.146 831.122C279.146 827.468 278.131 824.481 276.101 822.161C274.129 819.841 271.49 817.927 268.184 816.419C270.736 815.085 272.853 813.345 274.535 811.199C276.217 808.995 277.058 806.182 277.058 802.76C277.058 800.44 276.507 798.265 275.405 796.235C274.361 794.205 272.911 792.465 271.055 791.015C269.199 789.507 266.966 788.347 264.356 787.535C261.746 786.665 258.933 786.23 255.917 786.23C252.843 786.23 250.001 786.665 247.391 787.535C244.839 788.347 242.635 789.507 240.779 791.015C238.923 792.465 237.444 794.205 236.342 796.235C235.298 798.265 234.776 800.44 234.776 802.76C234.776 806.182 235.617 808.995 237.299 811.199C238.981 813.345 241.098 815.085 243.65 816.419C240.17 817.869 237.473 819.783 235.559 822.161C233.645 824.539 232.688 827.613 232.688 831.383C232.688 833.993 233.268 836.4 234.428 838.604C235.588 840.75 237.212 842.577 239.3 844.085C241.388 845.593 243.853 846.782 246.695 847.652C249.537 848.464 252.611 848.87 255.917 848.87C259.223 848.87 262.297 848.464 265.139 847.652C267.981 846.84 270.446 845.68 272.534 844.172C274.622 842.606 276.246 840.721 277.406 838.517C278.566 836.313 279.146 833.848 279.146 831.122ZM266.792 803.804C266.792 806.472 265.748 808.647 263.66 810.329C261.63 812.011 259.049 812.852 255.917 812.852C252.785 812.852 250.175 812.011 248.087 810.329C246.057 808.647 245.042 806.443 245.042 803.717C245.042 801.339 246.028 799.338 248 797.714C249.972 796.032 252.611 795.191 255.917 795.191C259.223 795.191 261.862 796.032 263.834 797.714C265.806 799.338 266.792 801.368 266.792 803.804ZM268.706 830.687C268.706 833.297 267.575 835.501 265.313 837.299C263.051 839.039 259.919 839.909 255.917 839.909C251.915 839.909 248.783 839.039 246.521 837.299C244.259 835.501 243.128 833.297 243.128 830.687C243.128 829.295 243.447 828.019 244.085 826.859C244.781 825.699 245.68 824.713 246.782 823.901C247.942 823.089 249.305 822.48 250.871 822.074C252.437 821.61 254.119 821.378 255.917 821.378C257.715 821.378 259.397 821.61 260.963 822.074C262.529 822.48 263.863 823.089 264.965 823.901C266.125 824.713 267.024 825.699 267.662 826.859C268.358 828.019 268.706 829.295 268.706 830.687ZM339.601 817.463C339.601 813.113 338.963 809.024 337.687 805.196C336.469 801.368 334.7 798.033 332.38 795.191C330.06 792.349 327.276 790.116 324.028 788.492C320.78 786.868 317.155 786.056 313.153 786.056C309.151 786.056 305.497 786.897 302.191 788.579C298.943 790.203 296.159 792.436 293.839 795.278C291.519 798.12 289.721 801.484 288.445 805.37C287.169 809.198 286.531 813.287 286.531 817.637C286.531 821.987 287.14 826.076 288.358 829.904C289.634 833.732 291.432 837.067 293.752 839.909C296.072 842.751 298.856 844.984 302.104 846.608C305.352 848.232 308.977 849.044 312.979 849.044C316.981 849.044 320.606 848.232 323.854 846.608C327.16 844.926 329.973 842.664 332.293 839.822C334.613 836.98 336.411 833.645 337.687 829.817C338.963 825.931 339.601 821.813 339.601 817.463ZM328.552 817.637C328.552 820.653 328.175 823.495 327.421 826.163C326.725 828.773 325.71 831.064 324.376 833.036C323.042 835.008 321.418 836.574 319.504 837.734C317.648 838.836 315.531 839.387 313.153 839.387C310.775 839.387 308.629 838.836 306.715 837.734C304.801 836.574 303.148 835.008 301.756 833.036C300.422 831.006 299.378 828.686 298.624 826.076C297.928 823.408 297.58 820.537 297.58 817.463C297.58 814.447 297.928 811.605 298.624 808.937C299.378 806.269 300.422 803.978 301.756 802.064C303.09 800.092 304.685 798.555 306.541 797.453C308.455 796.293 310.601 795.713 312.979 795.713C315.357 795.713 317.503 796.293 319.417 797.453C321.331 798.613 322.955 800.179 324.289 802.151C325.681 804.123 326.725 806.443 327.421 809.111C328.175 811.779 328.552 814.621 328.552 817.637Z" fill="#000100"/>
<rect width="360" height="78" transform="translate(0 702)" fill="#000100"/>
<path d="M15.262 713.885L17.524 722.585L28.486 719.54V770H39.1V708.665H31.618L15.262 713.885ZM79.2491 718.409L62.8061 735.896L64.5461 742.595H69.5051C73.8551 742.595 77.2771 743.407 79.7711 745.031C82.2651 746.655 83.5121 749.004 83.5121 752.078C83.5121 754.92 82.4971 757.182 80.4671 758.864C78.4951 760.546 76.0011 761.387 72.9851 761.387C69.5631 761.387 66.5761 760.72 64.0241 759.386C61.5301 757.994 59.1811 755.993 56.9771 753.383L49.4951 760.343C52.1051 763.475 55.2951 766.056 59.0651 768.086C62.8931 770.058 67.4751 771.044 72.8111 771.044C75.9431 771.044 78.8141 770.58 81.4241 769.652C84.0921 768.666 86.3541 767.332 88.2101 765.65C90.0661 763.91 91.5161 761.88 92.5601 759.56C93.6041 757.182 94.1261 754.572 94.1261 751.73C94.1261 748.888 93.6331 746.452 92.6471 744.422C91.6611 742.392 90.3271 740.71 88.6451 739.376C87.0211 737.984 85.1071 736.911 82.9031 736.157C80.7571 735.345 78.5241 734.794 76.2041 734.504L93.1691 717.104V709.1H52.8881V718.409H79.2491ZM124.59 717.8C127.374 717.8 129.694 718.641 131.55 720.323C133.464 721.947 134.421 724.267 134.421 727.283C134.421 728.675 134.218 729.98 133.812 731.198C133.406 732.416 132.739 733.663 131.811 734.939C130.941 736.215 129.781 737.578 128.331 739.028C126.881 740.42 125.112 741.986 123.024 743.726L102.057 761.561V770H146.079V760.604H117.108L129.636 750.164C132.304 747.96 134.624 745.93 136.596 744.074C138.626 742.218 140.279 740.391 141.555 738.593C142.889 736.795 143.875 734.939 144.513 733.025C145.151 731.111 145.47 728.936 145.47 726.5C145.47 723.774 144.977 721.309 143.991 719.105C143.063 716.843 141.729 714.9 139.989 713.276C138.249 711.652 136.132 710.405 133.638 709.535C131.144 708.665 128.389 708.23 125.373 708.23C122.647 708.23 120.211 708.52 118.065 709.1C115.977 709.68 114.034 710.521 112.236 711.623C110.496 712.667 108.872 714.001 107.364 715.625C105.856 717.191 104.377 718.989 102.927 721.019L110.496 726.935C112.874 723.861 115.107 721.57 117.195 720.062C119.341 718.554 121.806 717.8 124.59 717.8ZM152.368 778.178L153.499 782.615C157.907 782.267 161.242 780.991 163.504 778.787C165.766 776.583 166.897 773.045 166.897 768.173V758.081H155.326V770H159.763C160.169 774.408 157.704 777.134 152.368 778.178ZM208.009 708.665L174.166 748.685L176.167 756.341H206.878V770H217.144V756.341H225.844V747.554H217.144V708.665H208.009ZM206.878 747.554H186.868L206.878 723.455V747.554ZM279.146 753.122C279.146 749.468 278.131 746.481 276.101 744.161C274.129 741.841 271.49 739.927 268.184 738.419C270.736 737.085 272.853 735.345 274.535 733.199C276.217 730.995 277.058 728.182 277.058 724.76C277.058 722.44 276.507 720.265 275.405 718.235C274.361 716.205 272.911 714.465 271.055 713.015C269.199 711.507 266.966 710.347 264.356 709.535C261.746 708.665 258.933 708.23 255.917 708.23C252.843 708.23 250.001 708.665 247.391 709.535C244.839 710.347 242.635 711.507 240.779 713.015C238.923 714.465 237.444 716.205 236.342 718.235C235.298 720.265 234.776 722.44 234.776 724.76C234.776 728.182 235.617 730.995 237.299 733.199C238.981 735.345 241.098 737.085 243.65 738.419C240.17 739.869 237.473 741.783 235.559 744.161C233.645 746.539 232.688 749.613 232.688 753.383C232.688 755.993 233.268 758.4 234.428 760.604C235.588 762.75 237.212 764.577 239.3 766.085C241.388 767.593 243.853 768.782 246.695 769.652C249.537 770.464 252.611 770.87 255.917 770.87C259.223 770.87 262.297 770.464 265.139 769.652C267.981 768.84 270.446 767.68 272.534 766.172C274.622 764.606 276.246 762.721 277.406 760.517C278.566 758.313 279.146 755.848 279.146 753.122ZM266.792 725.804C266.792 728.472 265.748 730.647 263.66 732.329C261.63 734.011 259.049 734.852 255.917 734.852C252.785 734.852 250.175 734.011 248.087 732.329C246.057 730.647 245.042 728.443 245.042 725.717C245.042 723.339 246.028 721.338 248 719.714C249.972 718.032 252.611 717.191 255.917 717.191C259.223 717.191 261.862 718.032 263.834 719.714C265.806 721.338 266.792 723.368 266.792 725.804ZM268.706 752.687C268.706 755.297 267.575 757.501 265.313 759.299C263.051 761.039 259.919 761.909 255.917 761.909C251.915 761.909 248.783 761.039 246.521 759.299C244.259 757.501 243.128 755.297 243.128 752.687C243.128 751.295 243.447 750.019 244.085 748.859C244.781 747.699 245.68 746.713 246.782 745.901C247.942 745.089 249.305 744.48 250.871 744.074C252.437 743.61 254.119 743.378 255.917 743.378C257.715 743.378 259.397 743.61 260.963 744.074C262.529 744.48 263.863 745.089 264.965 745.901C266.125 746.713 267.024 747.699 267.662 748.859C268.358 750.019 268.706 751.295 268.706 752.687ZM339.601 739.463C339.601 735.113 338.963 731.024 337.687 727.196C336.469 723.368 334.7 720.033 332.38 717.191C330.06 714.349 327.276 712.116 324.028 710.492C320.78 708.868 317.155 708.056 313.153 708.056C309.151 708.056 305.497 708.897 302.191 710.579C298.943 712.203 296.159 714.436 293.839 717.278C291.519 720.12 289.721 723.484 288.445 727.37C287.169 731.198 286.531 735.287 286.531 739.637C286.531 743.987 287.14 748.076 288.358 751.904C289.634 755.732 291.432 759.067 293.752 761.909C296.072 764.751 298.856 766.984 302.104 768.608C305.352 770.232 308.977 771.044 312.979 771.044C316.981 771.044 320.606 770.232 323.854 768.608C327.16 766.926 329.973 764.664 332.293 761.822C334.613 758.98 336.411 755.645 337.687 751.817C338.963 747.931 339.601 743.813 339.601 739.463ZM328.552 739.637C328.552 742.653 328.175 745.495 327.421 748.163C326.725 750.773 325.71 753.064 324.376 755.036C323.042 757.008 321.418 758.574 319.504 759.734C317.648 760.836 315.531 761.387 313.153 761.387C310.775 761.387 308.629 760.836 306.715 759.734C304.801 758.574 303.148 757.008 301.756 755.036C300.422 753.006 299.378 750.686 298.624 748.076C297.928 745.408 297.58 742.537 297.58 739.463C297.58 736.447 297.928 733.605 298.624 730.937C299.378 728.269 300.422 725.978 301.756 724.064C303.09 722.092 304.685 720.555 306.541 719.453C308.455 718.293 310.601 717.713 312.979 717.713C315.357 717.713 317.503 718.293 319.417 719.453C321.331 720.613 322.955 722.179 324.289 724.151C325.681 726.123 326.725 728.443 327.421 731.111C328.175 733.779 328.552 736.621 328.552 739.637Z" fill="#FF8B1F"/>
<rect width="360" height="78" transform="translate(0 624)" fill="#6900BA"/>
<path d="M15.262 635.885L17.524 644.585L28.486 641.54V692H39.1V630.665H31.618L15.262 635.885ZM79.2491 640.409L62.8061 657.896L64.5461 664.595H69.5051C73.8551 664.595 77.2771 665.407 79.7711 667.031C82.2651 668.655 83.5121 671.004 83.5121 674.078C83.5121 676.92 82.4971 679.182 80.4671 680.864C78.4951 682.546 76.0011 683.387 72.9851 683.387C69.5631 683.387 66.5761 682.72 64.0241 681.386C61.5301 679.994 59.1811 677.993 56.9771 675.383L49.4951 682.343C52.1051 685.475 55.2951 688.056 59.0651 690.086C62.8931 692.058 67.4751 693.044 72.8111 693.044C75.9431 693.044 78.8141 692.58 81.4241 691.652C84.0921 690.666 86.3541 689.332 88.2101 687.65C90.0661 685.91 91.5161 683.88 92.5601 681.56C93.6041 679.182 94.1261 676.572 94.1261 673.73C94.1261 670.888 93.6331 668.452 92.6471 666.422C91.6611 664.392 90.3271 662.71 88.6451 661.376C87.0211 659.984 85.1071 658.911 82.9031 658.157C80.7571 657.345 78.5241 656.794 76.2041 656.504L93.1691 639.104V631.1H52.8881V640.409H79.2491ZM124.59 639.8C127.374 639.8 129.694 640.641 131.55 642.323C133.464 643.947 134.421 646.267 134.421 649.283C134.421 650.675 134.218 651.98 133.812 653.198C133.406 654.416 132.739 655.663 131.811 656.939C130.941 658.215 129.781 659.578 128.331 661.028C126.881 662.42 125.112 663.986 123.024 665.726L102.057 683.561V692H146.079V682.604H117.108L129.636 672.164C132.304 669.96 134.624 667.93 136.596 666.074C138.626 664.218 140.279 662.391 141.555 660.593C142.889 658.795 143.875 656.939 144.513 655.025C145.151 653.111 145.47 650.936 145.47 648.5C145.47 645.774 144.977 643.309 143.991 641.105C143.063 638.843 141.729 636.9 139.989 635.276C138.249 633.652 136.132 632.405 133.638 631.535C131.144 630.665 128.389 630.23 125.373 630.23C122.647 630.23 120.211 630.52 118.065 631.1C115.977 631.68 114.034 632.521 112.236 633.623C110.496 634.667 108.872 636.001 107.364 637.625C105.856 639.191 104.377 640.989 102.927 643.019L110.496 648.935C112.874 645.861 115.107 643.57 117.195 642.062C119.341 640.554 121.806 639.8 124.59 639.8ZM152.368 700.178L153.499 704.615C157.907 704.267 161.242 702.991 163.504 700.787C165.766 698.583 166.897 695.045 166.897 690.173V680.081H155.326V692H159.763C160.169 696.408 157.704 699.134 152.368 700.178ZM208.009 630.665L174.166 670.685L176.167 678.341H206.878V692H217.144V678.341H225.844V669.554H217.144V630.665H208.009ZM206.878 669.554H186.868L206.878 645.455V669.554ZM279.146 675.122C279.146 671.468 278.131 668.481 276.101 666.161C274.129 663.841 271.49 661.927 268.184 660.419C270.736 659.085 272.853 657.345 274.535 655.199C276.217 652.995 277.058 650.182 277.058 646.76C277.058 644.44 276.507 642.265 275.405 640.235C274.361 638.205 272.911 636.465 271.055 635.015C269.199 633.507 266.966 632.347 264.356 631.535C261.746 630.665 258.933 630.23 255.917 630.23C252.843 630.23 250.001 630.665 247.391 631.535C244.839 632.347 242.635 633.507 240.779 635.015C238.923 636.465 237.444 638.205 236.342 640.235C235.298 642.265 234.776 644.44 234.776 646.76C234.776 650.182 235.617 652.995 237.299 655.199C238.981 657.345 241.098 659.085 243.65 660.419C240.17 661.869 237.473 663.783 235.559 666.161C233.645 668.539 232.688 671.613 232.688 675.383C232.688 677.993 233.268 680.4 234.428 682.604C235.588 684.75 237.212 686.577 239.3 688.085C241.388 689.593 243.853 690.782 246.695 691.652C249.537 692.464 252.611 692.87 255.917 692.87C259.223 692.87 262.297 692.464 265.139 691.652C267.981 690.84 270.446 689.68 272.534 688.172C274.622 686.606 276.246 684.721 277.406 682.517C278.566 680.313 279.146 677.848 279.146 675.122ZM266.792 647.804C266.792 650.472 265.748 652.647 263.66 654.329C261.63 656.011 259.049 656.852 255.917 656.852C252.785 656.852 250.175 656.011 248.087 654.329C246.057 652.647 245.042 650.443 245.042 647.717C245.042 645.339 246.028 643.338 248 641.714C249.972 640.032 252.611 639.191 255.917 639.191C259.223 639.191 261.862 640.032 263.834 641.714C265.806 643.338 266.792 645.368 266.792 647.804ZM268.706 674.687C268.706 677.297 267.575 679.501 265.313 681.299C263.051 683.039 259.919 683.909 255.917 683.909C251.915 683.909 248.783 683.039 246.521 681.299C244.259 679.501 243.128 677.297 243.128 674.687C243.128 673.295 243.447 672.019 244.085 670.859C244.781 669.699 245.68 668.713 246.782 667.901C247.942 667.089 249.305 666.48 250.871 666.074C252.437 665.61 254.119 665.378 255.917 665.378C257.715 665.378 259.397 665.61 260.963 666.074C262.529 666.48 263.863 667.089 264.965 667.901C266.125 668.713 267.024 669.699 267.662 670.859C268.358 672.019 268.706 673.295 268.706 674.687ZM339.601 661.463C339.601 657.113 338.963 653.024 337.687 649.196C336.469 645.368 334.7 642.033 332.38 639.191C330.06 636.349 327.276 634.116 324.028 632.492C320.78 630.868 317.155 630.056 313.153 630.056C309.151 630.056 305.497 630.897 302.191 632.579C298.943 634.203 296.159 636.436 293.839 639.278C291.519 642.12 289.721 645.484 288.445 649.37C287.169 653.198 286.531 657.287 286.531 661.637C286.531 665.987 287.14 670.076 288.358 673.904C289.634 677.732 291.432 681.067 293.752 683.909C296.072 686.751 298.856 688.984 302.104 690.608C305.352 692.232 308.977 693.044 312.979 693.044C316.981 693.044 320.606 692.232 323.854 690.608C327.16 688.926 329.973 686.664 332.293 683.822C334.613 680.98 336.411 677.645 337.687 673.817C338.963 669.931 339.601 665.813 339.601 661.463ZM328.552 661.637C328.552 664.653 328.175 667.495 327.421 670.163C326.725 672.773 325.71 675.064 324.376 677.036C323.042 679.008 321.418 680.574 319.504 681.734C317.648 682.836 315.531 683.387 313.153 683.387C310.775 683.387 308.629 682.836 306.715 681.734C304.801 680.574 303.148 679.008 301.756 677.036C300.422 675.006 299.378 672.686 298.624 670.076C297.928 667.408 297.58 664.537 297.58 661.463C297.58 658.447 297.928 655.605 298.624 652.937C299.378 650.269 300.422 647.978 301.756 646.064C303.09 644.092 304.685 642.555 306.541 641.453C308.455 640.293 310.601 639.713 312.979 639.713C315.357 639.713 317.503 640.293 319.417 641.453C321.331 642.613 322.955 644.179 324.289 646.151C325.681 648.123 326.725 650.443 327.421 653.111C328.175 655.779 328.552 658.621 328.552 661.637Z" fill="#F2FF47"/>
<rect width="360" height="78" transform="translate(0 546)" fill="#FF8B1F"/>
<path d="M15.262 557.885L17.524 566.585L28.486 563.54V614H39.1V552.665H31.618L15.262 557.885ZM79.2491 562.409L62.8061 579.896L64.5461 586.595H69.5051C73.8551 586.595 77.2771 587.407 79.7711 589.031C82.2651 590.655 83.5121 593.004 83.5121 596.078C83.5121 598.92 82.4971 601.182 80.4671 602.864C78.4951 604.546 76.0011 605.387 72.9851 605.387C69.5631 605.387 66.5761 604.72 64.0241 603.386C61.5301 601.994 59.1811 599.993 56.9771 597.383L49.4951 604.343C52.1051 607.475 55.2951 610.056 59.0651 612.086C62.8931 614.058 67.4751 615.044 72.8111 615.044C75.9431 615.044 78.8141 614.58 81.4241 613.652C84.0921 612.666 86.3541 611.332 88.2101 609.65C90.0661 607.91 91.5161 605.88 92.5601 603.56C93.6041 601.182 94.1261 598.572 94.1261 595.73C94.1261 592.888 93.6331 590.452 92.6471 588.422C91.6611 586.392 90.3271 584.71 88.6451 583.376C87.0211 581.984 85.1071 580.911 82.9031 580.157C80.7571 579.345 78.5241 578.794 76.2041 578.504L93.1691 561.104V553.1H52.8881V562.409H79.2491ZM124.59 561.8C127.374 561.8 129.694 562.641 131.55 564.323C133.464 565.947 134.421 568.267 134.421 571.283C134.421 572.675 134.218 573.98 133.812 575.198C133.406 576.416 132.739 577.663 131.811 578.939C130.941 580.215 129.781 581.578 128.331 583.028C126.881 584.42 125.112 585.986 123.024 587.726L102.057 605.561V614H146.079V604.604H117.108L129.636 594.164C132.304 591.96 134.624 589.93 136.596 588.074C138.626 586.218 140.279 584.391 141.555 582.593C142.889 580.795 143.875 578.939 144.513 577.025C145.151 575.111 145.47 572.936 145.47 570.5C145.47 567.774 144.977 565.309 143.991 563.105C143.063 560.843 141.729 558.9 139.989 557.276C138.249 555.652 136.132 554.405 133.638 553.535C131.144 552.665 128.389 552.23 125.373 552.23C122.647 552.23 120.211 552.52 118.065 553.1C115.977 553.68 114.034 554.521 112.236 555.623C110.496 556.667 108.872 558.001 107.364 559.625C105.856 561.191 104.377 562.989 102.927 565.019L110.496 570.935C112.874 567.861 115.107 565.57 117.195 564.062C119.341 562.554 121.806 561.8 124.59 561.8ZM152.368 622.178L153.499 626.615C157.907 626.267 161.242 624.991 163.504 622.787C165.766 620.583 166.897 617.045 166.897 612.173V602.081H155.326V614H159.763C160.169 618.408 157.704 621.134 152.368 622.178ZM208.009 552.665L174.166 592.685L176.167 600.341H206.878V614H217.144V600.341H225.844V591.554H217.144V552.665H208.009ZM206.878 591.554H186.868L206.878 567.455V591.554ZM279.146 597.122C279.146 593.468 278.131 590.481 276.101 588.161C274.129 585.841 271.49 583.927 268.184 582.419C270.736 581.085 272.853 579.345 274.535 577.199C276.217 574.995 277.058 572.182 277.058 568.76C277.058 566.44 276.507 564.265 275.405 562.235C274.361 560.205 272.911 558.465 271.055 557.015C269.199 555.507 266.966 554.347 264.356 553.535C261.746 552.665 258.933 552.23 255.917 552.23C252.843 552.23 250.001 552.665 247.391 553.535C244.839 554.347 242.635 555.507 240.779 557.015C238.923 558.465 237.444 560.205 236.342 562.235C235.298 564.265 234.776 566.44 234.776 568.76C234.776 572.182 235.617 574.995 237.299 577.199C238.981 579.345 241.098 581.085 243.65 582.419C240.17 583.869 237.473 585.783 235.559 588.161C233.645 590.539 232.688 593.613 232.688 597.383C232.688 599.993 233.268 602.4 234.428 604.604C235.588 606.75 237.212 608.577 239.3 610.085C241.388 611.593 243.853 612.782 246.695 613.652C249.537 614.464 252.611 614.87 255.917 614.87C259.223 614.87 262.297 614.464 265.139 613.652C267.981 612.84 270.446 611.68 272.534 610.172C274.622 608.606 276.246 606.721 277.406 604.517C278.566 602.313 279.146 599.848 279.146 597.122ZM266.792 569.804C266.792 572.472 265.748 574.647 263.66 576.329C261.63 578.011 259.049 578.852 255.917 578.852C252.785 578.852 250.175 578.011 248.087 576.329C246.057 574.647 245.042 572.443 245.042 569.717C245.042 567.339 246.028 565.338 248 563.714C249.972 562.032 252.611 561.191 255.917 561.191C259.223 561.191 261.862 562.032 263.834 563.714C265.806 565.338 266.792 567.368 266.792 569.804ZM268.706 596.687C268.706 599.297 267.575 601.501 265.313 603.299C263.051 605.039 259.919 605.909 255.917 605.909C251.915 605.909 248.783 605.039 246.521 603.299C244.259 601.501 243.128 599.297 243.128 596.687C243.128 595.295 243.447 594.019 244.085 592.859C244.781 591.699 245.68 590.713 246.782 589.901C247.942 589.089 249.305 588.48 250.871 588.074C252.437 587.61 254.119 587.378 255.917 587.378C257.715 587.378 259.397 587.61 260.963 588.074C262.529 588.48 263.863 589.089 264.965 589.901C266.125 590.713 267.024 591.699 267.662 592.859C268.358 594.019 268.706 595.295 268.706 596.687ZM339.601 583.463C339.601 579.113 338.963 575.024 337.687 571.196C336.469 567.368 334.7 564.033 332.38 561.191C330.06 558.349 327.276 556.116 324.028 554.492C320.78 552.868 317.155 552.056 313.153 552.056C309.151 552.056 305.497 552.897 302.191 554.579C298.943 556.203 296.159 558.436 293.839 561.278C291.519 564.12 289.721 567.484 288.445 571.37C287.169 575.198 286.531 579.287 286.531 583.637C286.531 587.987 287.14 592.076 288.358 595.904C289.634 599.732 291.432 603.067 293.752 605.909C296.072 608.751 298.856 610.984 302.104 612.608C305.352 614.232 308.977 615.044 312.979 615.044C316.981 615.044 320.606 614.232 323.854 612.608C327.16 610.926 329.973 608.664 332.293 605.822C334.613 602.98 336.411 599.645 337.687 595.817C338.963 591.931 339.601 587.813 339.601 583.463ZM328.552 583.637C328.552 586.653 328.175 589.495 327.421 592.163C326.725 594.773 325.71 597.064 324.376 599.036C323.042 601.008 321.418 602.574 319.504 603.734C317.648 604.836 315.531 605.387 313.153 605.387C310.775 605.387 308.629 604.836 306.715 603.734C304.801 602.574 303.148 601.008 301.756 599.036C300.422 597.006 299.378 594.686 298.624 592.076C297.928 589.408 297.58 586.537 297.58 583.463C297.58 580.447 297.928 577.605 298.624 574.937C299.378 572.269 300.422 569.978 301.756 568.064C303.09 566.092 304.685 564.555 306.541 563.453C308.455 562.293 310.601 561.713 312.979 561.713C315.357 561.713 317.503 562.293 319.417 563.453C321.331 564.613 322.955 566.179 324.289 568.151C325.681 570.123 326.725 572.443 327.421 575.111C328.175 577.779 328.552 580.621 328.552 583.637Z" fill="#000100"/>
<rect width="360" height="78" transform="translate(0 468)" fill="#F675C2"/>
<path d="M15.262 479.885L17.524 488.585L28.486 485.54V536H39.1V474.665H31.618L15.262 479.885ZM79.2491 484.409L62.8061 501.896L64.5461 508.595H69.5051C73.8551 508.595 77.2771 509.407 79.7711 511.031C82.2651 512.655 83.5121 515.004 83.5121 518.078C83.5121 520.92 82.4971 523.182 80.4671 524.864C78.4951 526.546 76.0011 527.387 72.9851 527.387C69.5631 527.387 66.5761 526.72 64.0241 525.386C61.5301 523.994 59.1811 521.993 56.9771 519.383L49.4951 526.343C52.1051 529.475 55.2951 532.056 59.0651 534.086C62.8931 536.058 67.4751 537.044 72.8111 537.044C75.9431 537.044 78.8141 536.58 81.4241 535.652C84.0921 534.666 86.3541 533.332 88.2101 531.65C90.0661 529.91 91.5161 527.88 92.5601 525.56C93.6041 523.182 94.1261 520.572 94.1261 517.73C94.1261 514.888 93.6331 512.452 92.6471 510.422C91.6611 508.392 90.3271 506.71 88.6451 505.376C87.0211 503.984 85.1071 502.911 82.9031 502.157C80.7571 501.345 78.5241 500.794 76.2041 500.504L93.1691 483.104V475.1H52.8881V484.409H79.2491ZM124.59 483.8C127.374 483.8 129.694 484.641 131.55 486.323C133.464 487.947 134.421 490.267 134.421 493.283C134.421 494.675 134.218 495.98 133.812 497.198C133.406 498.416 132.739 499.663 131.811 500.939C130.941 502.215 129.781 503.578 128.331 505.028C126.881 506.42 125.112 507.986 123.024 509.726L102.057 527.561V536H146.079V526.604H117.108L129.636 516.164C132.304 513.96 134.624 511.93 136.596 510.074C138.626 508.218 140.279 506.391 141.555 504.593C142.889 502.795 143.875 500.939 144.513 499.025C145.151 497.111 145.47 494.936 145.47 492.5C145.47 489.774 144.977 487.309 143.991 485.105C143.063 482.843 141.729 480.9 139.989 479.276C138.249 477.652 136.132 476.405 133.638 475.535C131.144 474.665 128.389 474.23 125.373 474.23C122.647 474.23 120.211 474.52 118.065 475.1C115.977 475.68 114.034 476.521 112.236 477.623C110.496 478.667 108.872 480.001 107.364 481.625C105.856 483.191 104.377 484.989 102.927 487.019L110.496 492.935C112.874 489.861 115.107 487.57 117.195 486.062C119.341 484.554 121.806 483.8 124.59 483.8ZM152.368 544.178L153.499 548.615C157.907 548.267 161.242 546.991 163.504 544.787C165.766 542.583 166.897 539.045 166.897 534.173V524.081H155.326V536H159.763C160.169 540.408 157.704 543.134 152.368 544.178ZM208.009 474.665L174.166 514.685L176.167 522.341H206.878V536H217.144V522.341H225.844V513.554H217.144V474.665H208.009ZM206.878 513.554H186.868L206.878 489.455V513.554ZM279.146 519.122C279.146 515.468 278.131 512.481 276.101 510.161C274.129 507.841 271.49 505.927 268.184 504.419C270.736 503.085 272.853 501.345 274.535 499.199C276.217 496.995 277.058 494.182 277.058 490.76C277.058 488.44 276.507 486.265 275.405 484.235C274.361 482.205 272.911 480.465 271.055 479.015C269.199 477.507 266.966 476.347 264.356 475.535C261.746 474.665 258.933 474.23 255.917 474.23C252.843 474.23 250.001 474.665 247.391 475.535C244.839 476.347 242.635 477.507 240.779 479.015C238.923 480.465 237.444 482.205 236.342 484.235C235.298 486.265 234.776 488.44 234.776 490.76C234.776 494.182 235.617 496.995 237.299 499.199C238.981 501.345 241.098 503.085 243.65 504.419C240.17 505.869 237.473 507.783 235.559 510.161C233.645 512.539 232.688 515.613 232.688 519.383C232.688 521.993 233.268 524.4 234.428 526.604C235.588 528.75 237.212 530.577 239.3 532.085C241.388 533.593 243.853 534.782 246.695 535.652C249.537 536.464 252.611 536.87 255.917 536.87C259.223 536.87 262.297 536.464 265.139 535.652C267.981 534.84 270.446 533.68 272.534 532.172C274.622 530.606 276.246 528.721 277.406 526.517C278.566 524.313 279.146 521.848 279.146 519.122ZM266.792 491.804C266.792 494.472 265.748 496.647 263.66 498.329C261.63 500.011 259.049 500.852 255.917 500.852C252.785 500.852 250.175 500.011 248.087 498.329C246.057 496.647 245.042 494.443 245.042 491.717C245.042 489.339 246.028 487.338 248 485.714C249.972 484.032 252.611 483.191 255.917 483.191C259.223 483.191 261.862 484.032 263.834 485.714C265.806 487.338 266.792 489.368 266.792 491.804ZM268.706 518.687C268.706 521.297 267.575 523.501 265.313 525.299C263.051 527.039 259.919 527.909 255.917 527.909C251.915 527.909 248.783 527.039 246.521 525.299C244.259 523.501 243.128 521.297 243.128 518.687C243.128 517.295 243.447 516.019 244.085 514.859C244.781 513.699 245.68 512.713 246.782 511.901C247.942 511.089 249.305 510.48 250.871 510.074C252.437 509.61 254.119 509.378 255.917 509.378C257.715 509.378 259.397 509.61 260.963 510.074C262.529 510.48 263.863 511.089 264.965 511.901C266.125 512.713 267.024 513.699 267.662 514.859C268.358 516.019 268.706 517.295 268.706 518.687ZM339.601 505.463C339.601 501.113 338.963 497.024 337.687 493.196C336.469 489.368 334.7 486.033 332.38 483.191C330.06 480.349 327.276 478.116 324.028 476.492C320.78 474.868 317.155 474.056 313.153 474.056C309.151 474.056 305.497 474.897 302.191 476.579C298.943 478.203 296.159 480.436 293.839 483.278C291.519 486.12 289.721 489.484 288.445 493.37C287.169 497.198 286.531 501.287 286.531 505.637C286.531 509.987 287.14 514.076 288.358 517.904C289.634 521.732 291.432 525.067 293.752 527.909C296.072 530.751 298.856 532.984 302.104 534.608C305.352 536.232 308.977 537.044 312.979 537.044C316.981 537.044 320.606 536.232 323.854 534.608C327.16 532.926 329.973 530.664 332.293 527.822C334.613 524.98 336.411 521.645 337.687 517.817C338.963 513.931 339.601 509.813 339.601 505.463ZM328.552 505.637C328.552 508.653 328.175 511.495 327.421 514.163C326.725 516.773 325.71 519.064 324.376 521.036C323.042 523.008 321.418 524.574 319.504 525.734C317.648 526.836 315.531 527.387 313.153 527.387C310.775 527.387 308.629 526.836 306.715 525.734C304.801 524.574 303.148 523.008 301.756 521.036C300.422 519.006 299.378 516.686 298.624 514.076C297.928 511.408 297.58 508.537 297.58 505.463C297.58 502.447 297.928 499.605 298.624 496.937C299.378 494.269 300.422 491.978 301.756 490.064C303.09 488.092 304.685 486.555 306.541 485.453C308.455 484.293 310.601 483.713 312.979 483.713C315.357 483.713 317.503 484.293 319.417 485.453C321.331 486.613 322.955 488.179 324.289 490.151C325.681 492.123 326.725 494.443 327.421 497.111C328.175 499.779 328.552 502.621 328.552 505.637Z" fill="#000100"/>
<rect width="360" height="78" transform="translate(0 390)" fill="#11D861"/>
<path d="M15.262 401.885L17.524 410.585L28.486 407.54V458H39.1V396.665H31.618L15.262 401.885ZM79.2491 406.409L62.8061 423.896L64.5461 430.595H69.5051C73.8551 430.595 77.2771 431.407 79.7711 433.031C82.2651 434.655 83.5121 437.004 83.5121 440.078C83.5121 442.92 82.4971 445.182 80.4671 446.864C78.4951 448.546 76.0011 449.387 72.9851 449.387C69.5631 449.387 66.5761 448.72 64.0241 447.386C61.5301 445.994 59.1811 443.993 56.9771 441.383L49.4951 448.343C52.1051 451.475 55.2951 454.056 59.0651 456.086C62.8931 458.058 67.4751 459.044 72.8111 459.044C75.9431 459.044 78.8141 458.58 81.4241 457.652C84.0921 456.666 86.3541 455.332 88.2101 453.65C90.0661 451.91 91.5161 449.88 92.5601 447.56C93.6041 445.182 94.1261 442.572 94.1261 439.73C94.1261 436.888 93.6331 434.452 92.6471 432.422C91.6611 430.392 90.3271 428.71 88.6451 427.376C87.0211 425.984 85.1071 424.911 82.9031 424.157C80.7571 423.345 78.5241 422.794 76.2041 422.504L93.1691 405.104V397.1H52.8881V406.409H79.2491ZM124.59 405.8C127.374 405.8 129.694 406.641 131.55 408.323C133.464 409.947 134.421 412.267 134.421 415.283C134.421 416.675 134.218 417.98 133.812 419.198C133.406 420.416 132.739 421.663 131.811 422.939C130.941 424.215 129.781 425.578 128.331 427.028C126.881 428.42 125.112 429.986 123.024 431.726L102.057 449.561V458H146.079V448.604H117.108L129.636 438.164C132.304 435.96 134.624 433.93 136.596 432.074C138.626 430.218 140.279 428.391 141.555 426.593C142.889 424.795 143.875 422.939 144.513 421.025C145.151 419.111 145.47 416.936 145.47 414.5C145.47 411.774 144.977 409.309 143.991 407.105C143.063 404.843 141.729 402.9 139.989 401.276C138.249 399.652 136.132 398.405 133.638 397.535C131.144 396.665 128.389 396.23 125.373 396.23C122.647 396.23 120.211 396.52 118.065 397.1C115.977 397.68 114.034 398.521 112.236 399.623C110.496 400.667 108.872 402.001 107.364 403.625C105.856 405.191 104.377 406.989 102.927 409.019L110.496 414.935C112.874 411.861 115.107 409.57 117.195 408.062C119.341 406.554 121.806 405.8 124.59 405.8ZM152.368 466.178L153.499 470.615C157.907 470.267 161.242 468.991 163.504 466.787C165.766 464.583 166.897 461.045 166.897 456.173V446.081H155.326V458H159.763C160.169 462.408 157.704 465.134 152.368 466.178ZM208.009 396.665L174.166 436.685L176.167 444.341H206.878V458H217.144V444.341H225.844V435.554H217.144V396.665H208.009ZM206.878 435.554H186.868L206.878 411.455V435.554ZM279.146 441.122C279.146 437.468 278.131 434.481 276.101 432.161C274.129 429.841 271.49 427.927 268.184 426.419C270.736 425.085 272.853 423.345 274.535 421.199C276.217 418.995 277.058 416.182 277.058 412.76C277.058 410.44 276.507 408.265 275.405 406.235C274.361 404.205 272.911 402.465 271.055 401.015C269.199 399.507 266.966 398.347 264.356 397.535C261.746 396.665 258.933 396.23 255.917 396.23C252.843 396.23 250.001 396.665 247.391 397.535C244.839 398.347 242.635 399.507 240.779 401.015C238.923 402.465 237.444 404.205 236.342 406.235C235.298 408.265 234.776 410.44 234.776 412.76C234.776 416.182 235.617 418.995 237.299 421.199C238.981 423.345 241.098 425.085 243.65 426.419C240.17 427.869 237.473 429.783 235.559 432.161C233.645 434.539 232.688 437.613 232.688 441.383C232.688 443.993 233.268 446.4 234.428 448.604C235.588 450.75 237.212 452.577 239.3 454.085C241.388 455.593 243.853 456.782 246.695 457.652C249.537 458.464 252.611 458.87 255.917 458.87C259.223 458.87 262.297 458.464 265.139 457.652C267.981 456.84 270.446 455.68 272.534 454.172C274.622 452.606 276.246 450.721 277.406 448.517C278.566 446.313 279.146 443.848 279.146 441.122ZM266.792 413.804C266.792 416.472 265.748 418.647 263.66 420.329C261.63 422.011 259.049 422.852 255.917 422.852C252.785 422.852 250.175 422.011 248.087 420.329C246.057 418.647 245.042 416.443 245.042 413.717C245.042 411.339 246.028 409.338 248 407.714C249.972 406.032 252.611 405.191 255.917 405.191C259.223 405.191 261.862 406.032 263.834 407.714C265.806 409.338 266.792 411.368 266.792 413.804ZM268.706 440.687C268.706 443.297 267.575 445.501 265.313 447.299C263.051 449.039 259.919 449.909 255.917 449.909C251.915 449.909 248.783 449.039 246.521 447.299C244.259 445.501 243.128 443.297 243.128 440.687C243.128 439.295 243.447 438.019 244.085 436.859C244.781 435.699 245.68 434.713 246.782 433.901C247.942 433.089 249.305 432.48 250.871 432.074C252.437 431.61 254.119 431.378 255.917 431.378C257.715 431.378 259.397 431.61 260.963 432.074C262.529 432.48 263.863 433.089 264.965 433.901C266.125 434.713 267.024 435.699 267.662 436.859C268.358 438.019 268.706 439.295 268.706 440.687ZM339.601 427.463C339.601 423.113 338.963 419.024 337.687 415.196C336.469 411.368 334.7 408.033 332.38 405.191C330.06 402.349 327.276 400.116 324.028 398.492C320.78 396.868 317.155 396.056 313.153 396.056C309.151 396.056 305.497 396.897 302.191 398.579C298.943 400.203 296.159 402.436 293.839 405.278C291.519 408.12 289.721 411.484 288.445 415.37C287.169 419.198 286.531 423.287 286.531 427.637C286.531 431.987 287.14 436.076 288.358 439.904C289.634 443.732 291.432 447.067 293.752 449.909C296.072 452.751 298.856 454.984 302.104 456.608C305.352 458.232 308.977 459.044 312.979 459.044C316.981 459.044 320.606 458.232 323.854 456.608C327.16 454.926 329.973 452.664 332.293 449.822C334.613 446.98 336.411 443.645 337.687 439.817C338.963 435.931 339.601 431.813 339.601 427.463ZM328.552 427.637C328.552 430.653 328.175 433.495 327.421 436.163C326.725 438.773 325.71 441.064 324.376 443.036C323.042 445.008 321.418 446.574 319.504 447.734C317.648 448.836 315.531 449.387 313.153 449.387C310.775 449.387 308.629 448.836 306.715 447.734C304.801 446.574 303.148 445.008 301.756 443.036C300.422 441.006 299.378 438.686 298.624 436.076C297.928 433.408 297.58 430.537 297.58 427.463C297.58 424.447 297.928 421.605 298.624 418.937C299.378 416.269 300.422 413.978 301.756 412.064C303.09 410.092 304.685 408.555 306.541 407.453C308.455 406.293 310.601 405.713 312.979 405.713C315.357 405.713 317.503 406.293 319.417 407.453C321.331 408.613 322.955 410.179 324.289 412.151C325.681 414.123 326.725 416.443 327.421 419.111C328.175 421.779 328.552 424.621 328.552 427.637Z" fill="#000100"/>
<rect width="360" height="78" transform="translate(0 312)" fill="#000100"/>
<path d="M15.262 323.885L17.524 332.585L28.486 329.54V380H39.1V318.665H31.618L15.262 323.885ZM79.2491 328.409L62.8061 345.896L64.5461 352.595H69.5051C73.8551 352.595 77.2771 353.407 79.7711 355.031C82.2651 356.655 83.5121 359.004 83.5121 362.078C83.5121 364.92 82.4971 367.182 80.4671 368.864C78.4951 370.546 76.0011 371.387 72.9851 371.387C69.5631 371.387 66.5761 370.72 64.0241 369.386C61.5301 367.994 59.1811 365.993 56.9771 363.383L49.4951 370.343C52.1051 373.475 55.2951 376.056 59.0651 378.086C62.8931 380.058 67.4751 381.044 72.8111 381.044C75.9431 381.044 78.8141 380.58 81.4241 379.652C84.0921 378.666 86.3541 377.332 88.2101 375.65C90.0661 373.91 91.5161 371.88 92.5601 369.56C93.6041 367.182 94.1261 364.572 94.1261 361.73C94.1261 358.888 93.6331 356.452 92.6471 354.422C91.6611 352.392 90.3271 350.71 88.6451 349.376C87.0211 347.984 85.1071 346.911 82.9031 346.157C80.7571 345.345 78.5241 344.794 76.2041 344.504L93.1691 327.104V319.1H52.8881V328.409H79.2491ZM124.59 327.8C127.374 327.8 129.694 328.641 131.55 330.323C133.464 331.947 134.421 334.267 134.421 337.283C134.421 338.675 134.218 339.98 133.812 341.198C133.406 342.416 132.739 343.663 131.811 344.939C130.941 346.215 129.781 347.578 128.331 349.028C126.881 350.42 125.112 351.986 123.024 353.726L102.057 371.561V380H146.079V370.604H117.108L129.636 360.164C132.304 357.96 134.624 355.93 136.596 354.074C138.626 352.218 140.279 350.391 141.555 348.593C142.889 346.795 143.875 344.939 144.513 343.025C145.151 341.111 145.47 338.936 145.47 336.5C145.47 333.774 144.977 331.309 143.991 329.105C143.063 326.843 141.729 324.9 139.989 323.276C138.249 321.652 136.132 320.405 133.638 319.535C131.144 318.665 128.389 318.23 125.373 318.23C122.647 318.23 120.211 318.52 118.065 319.1C115.977 319.68 114.034 320.521 112.236 321.623C110.496 322.667 108.872 324.001 107.364 325.625C105.856 327.191 104.377 328.989 102.927 331.019L110.496 336.935C112.874 333.861 115.107 331.57 117.195 330.062C119.341 328.554 121.806 327.8 124.59 327.8ZM152.368 388.178L153.499 392.615C157.907 392.267 161.242 390.991 163.504 388.787C165.766 386.583 166.897 383.045 166.897 378.173V368.081H155.326V380H159.763C160.169 384.408 157.704 387.134 152.368 388.178ZM208.009 318.665L174.166 358.685L176.167 366.341H206.878V380H217.144V366.341H225.844V357.554H217.144V318.665H208.009ZM206.878 357.554H186.868L206.878 333.455V357.554ZM279.146 363.122C279.146 359.468 278.131 356.481 276.101 354.161C274.129 351.841 271.49 349.927 268.184 348.419C270.736 347.085 272.853 345.345 274.535 343.199C276.217 340.995 277.058 338.182 277.058 334.76C277.058 332.44 276.507 330.265 275.405 328.235C274.361 326.205 272.911 324.465 271.055 323.015C269.199 321.507 266.966 320.347 264.356 319.535C261.746 318.665 258.933 318.23 255.917 318.23C252.843 318.23 250.001 318.665 247.391 319.535C244.839 320.347 242.635 321.507 240.779 323.015C238.923 324.465 237.444 326.205 236.342 328.235C235.298 330.265 234.776 332.44 234.776 334.76C234.776 338.182 235.617 340.995 237.299 343.199C238.981 345.345 241.098 347.085 243.65 348.419C240.17 349.869 237.473 351.783 235.559 354.161C233.645 356.539 232.688 359.613 232.688 363.383C232.688 365.993 233.268 368.4 234.428 370.604C235.588 372.75 237.212 374.577 239.3 376.085C241.388 377.593 243.853 378.782 246.695 379.652C249.537 380.464 252.611 380.87 255.917 380.87C259.223 380.87 262.297 380.464 265.139 379.652C267.981 378.84 270.446 377.68 272.534 376.172C274.622 374.606 276.246 372.721 277.406 370.517C278.566 368.313 279.146 365.848 279.146 363.122ZM266.792 335.804C266.792 338.472 265.748 340.647 263.66 342.329C261.63 344.011 259.049 344.852 255.917 344.852C252.785 344.852 250.175 344.011 248.087 342.329C246.057 340.647 245.042 338.443 245.042 335.717C245.042 333.339 246.028 331.338 248 329.714C249.972 328.032 252.611 327.191 255.917 327.191C259.223 327.191 261.862 328.032 263.834 329.714C265.806 331.338 266.792 333.368 266.792 335.804ZM268.706 362.687C268.706 365.297 267.575 367.501 265.313 369.299C263.051 371.039 259.919 371.909 255.917 371.909C251.915 371.909 248.783 371.039 246.521 369.299C244.259 367.501 243.128 365.297 243.128 362.687C243.128 361.295 243.447 360.019 244.085 358.859C244.781 357.699 245.68 356.713 246.782 355.901C247.942 355.089 249.305 354.48 250.871 354.074C252.437 353.61 254.119 353.378 255.917 353.378C257.715 353.378 259.397 353.61 260.963 354.074C262.529 354.48 263.863 355.089 264.965 355.901C266.125 356.713 267.024 357.699 267.662 358.859C268.358 360.019 268.706 361.295 268.706 362.687ZM339.601 349.463C339.601 345.113 338.963 341.024 337.687 337.196C336.469 333.368 334.7 330.033 332.38 327.191C330.06 324.349 327.276 322.116 324.028 320.492C320.78 318.868 317.155 318.056 313.153 318.056C309.151 318.056 305.497 318.897 302.191 320.579C298.943 322.203 296.159 324.436 293.839 327.278C291.519 330.12 289.721 333.484 288.445 337.37C287.169 341.198 286.531 345.287 286.531 349.637C286.531 353.987 287.14 358.076 288.358 361.904C289.634 365.732 291.432 369.067 293.752 371.909C296.072 374.751 298.856 376.984 302.104 378.608C305.352 380.232 308.977 381.044 312.979 381.044C316.981 381.044 320.606 380.232 323.854 378.608C327.16 376.926 329.973 374.664 332.293 371.822C334.613 368.98 336.411 365.645 337.687 361.817C338.963 357.931 339.601 353.813 339.601 349.463ZM328.552 349.637C328.552 352.653 328.175 355.495 327.421 358.163C326.725 360.773 325.71 363.064 324.376 365.036C323.042 367.008 321.418 368.574 319.504 369.734C317.648 370.836 315.531 371.387 313.153 371.387C310.775 371.387 308.629 370.836 306.715 369.734C304.801 368.574 303.148 367.008 301.756 365.036C300.422 363.006 299.378 360.686 298.624 358.076C297.928 355.408 297.58 352.537 297.58 349.463C297.58 346.447 297.928 343.605 298.624 340.937C299.378 338.269 300.422 335.978 301.756 334.064C303.09 332.092 304.685 330.555 306.541 329.453C308.455 328.293 310.601 327.713 312.979 327.713C315.357 327.713 317.503 328.293 319.417 329.453C321.331 330.613 322.955 332.179 324.289 334.151C325.681 336.123 326.725 338.443 327.421 341.111C328.175 343.779 328.552 346.621 328.552 349.637Z" fill="#FF8B1F"/>
<rect width="360" height="78" transform="translate(0 234)" fill="#6900BA"/>
<path d="M15.262 245.885L17.524 254.585L28.486 251.54V302H39.1V240.665H31.618L15.262 245.885ZM79.2491 250.409L62.8061 267.896L64.5461 274.595H69.5051C73.8551 274.595 77.2771 275.407 79.7711 277.031C82.2651 278.655 83.5121 281.004 83.5121 284.078C83.5121 286.92 82.4971 289.182 80.4671 290.864C78.4951 292.546 76.0011 293.387 72.9851 293.387C69.5631 293.387 66.5761 292.72 64.0241 291.386C61.5301 289.994 59.1811 287.993 56.9771 285.383L49.4951 292.343C52.1051 295.475 55.2951 298.056 59.0651 300.086C62.8931 302.058 67.4751 303.044 72.8111 303.044C75.9431 303.044 78.8141 302.58 81.4241 301.652C84.0921 300.666 86.3541 299.332 88.2101 297.65C90.0661 295.91 91.5161 293.88 92.5601 291.56C93.6041 289.182 94.1261 286.572 94.1261 283.73C94.1261 280.888 93.6331 278.452 92.6471 276.422C91.6611 274.392 90.3271 272.71 88.6451 271.376C87.0211 269.984 85.1071 268.911 82.9031 268.157C80.7571 267.345 78.5241 266.794 76.2041 266.504L93.1691 249.104V241.1H52.8881V250.409H79.2491ZM124.59 249.8C127.374 249.8 129.694 250.641 131.55 252.323C133.464 253.947 134.421 256.267 134.421 259.283C134.421 260.675 134.218 261.98 133.812 263.198C133.406 264.416 132.739 265.663 131.811 266.939C130.941 268.215 129.781 269.578 128.331 271.028C126.881 272.42 125.112 273.986 123.024 275.726L102.057 293.561V302H146.079V292.604H117.108L129.636 282.164C132.304 279.96 134.624 277.93 136.596 276.074C138.626 274.218 140.279 272.391 141.555 270.593C142.889 268.795 143.875 266.939 144.513 265.025C145.151 263.111 145.47 260.936 145.47 258.5C145.47 255.774 144.977 253.309 143.991 251.105C143.063 248.843 141.729 246.9 139.989 245.276C138.249 243.652 136.132 242.405 133.638 241.535C131.144 240.665 128.389 240.23 125.373 240.23C122.647 240.23 120.211 240.52 118.065 241.1C115.977 241.68 114.034 242.521 112.236 243.623C110.496 244.667 108.872 246.001 107.364 247.625C105.856 249.191 104.377 250.989 102.927 253.019L110.496 258.935C112.874 255.861 115.107 253.57 117.195 252.062C119.341 250.554 121.806 249.8 124.59 249.8ZM152.368 310.178L153.499 314.615C157.907 314.267 161.242 312.991 163.504 310.787C165.766 308.583 166.897 305.045 166.897 300.173V290.081H155.326V302H159.763C160.169 306.408 157.704 309.134 152.368 310.178ZM208.009 240.665L174.166 280.685L176.167 288.341H206.878V302H217.144V288.341H225.844V279.554H217.144V240.665H208.009ZM206.878 279.554H186.868L206.878 255.455V279.554ZM279.146 285.122C279.146 281.468 278.131 278.481 276.101 276.161C274.129 273.841 271.49 271.927 268.184 270.419C270.736 269.085 272.853 267.345 274.535 265.199C276.217 262.995 277.058 260.182 277.058 256.76C277.058 254.44 276.507 252.265 275.405 250.235C274.361 248.205 272.911 246.465 271.055 245.015C269.199 243.507 266.966 242.347 264.356 241.535C261.746 240.665 258.933 240.23 255.917 240.23C252.843 240.23 250.001 240.665 247.391 241.535C244.839 242.347 242.635 243.507 240.779 245.015C238.923 246.465 237.444 248.205 236.342 250.235C235.298 252.265 234.776 254.44 234.776 256.76C234.776 260.182 235.617 262.995 237.299 265.199C238.981 267.345 241.098 269.085 243.65 270.419C240.17 271.869 237.473 273.783 235.559 276.161C233.645 278.539 232.688 281.613 232.688 285.383C232.688 287.993 233.268 290.4 234.428 292.604C235.588 294.75 237.212 296.577 239.3 298.085C241.388 299.593 243.853 300.782 246.695 301.652C249.537 302.464 252.611 302.87 255.917 302.87C259.223 302.87 262.297 302.464 265.139 301.652C267.981 300.84 270.446 299.68 272.534 298.172C274.622 296.606 276.246 294.721 277.406 292.517C278.566 290.313 279.146 287.848 279.146 285.122ZM266.792 257.804C266.792 260.472 265.748 262.647 263.66 264.329C261.63 266.011 259.049 266.852 255.917 266.852C252.785 266.852 250.175 266.011 248.087 264.329C246.057 262.647 245.042 260.443 245.042 257.717C245.042 255.339 246.028 253.338 248 251.714C249.972 250.032 252.611 249.191 255.917 249.191C259.223 249.191 261.862 250.032 263.834 251.714C265.806 253.338 266.792 255.368 266.792 257.804ZM268.706 284.687C268.706 287.297 267.575 289.501 265.313 291.299C263.051 293.039 259.919 293.909 255.917 293.909C251.915 293.909 248.783 293.039 246.521 291.299C244.259 289.501 243.128 287.297 243.128 284.687C243.128 283.295 243.447 282.019 244.085 280.859C244.781 279.699 245.68 278.713 246.782 277.901C247.942 277.089 249.305 276.48 250.871 276.074C252.437 275.61 254.119 275.378 255.917 275.378C257.715 275.378 259.397 275.61 260.963 276.074C262.529 276.48 263.863 277.089 264.965 277.901C266.125 278.713 267.024 279.699 267.662 280.859C268.358 282.019 268.706 283.295 268.706 284.687ZM339.601 271.463C339.601 267.113 338.963 263.024 337.687 259.196C336.469 255.368 334.7 252.033 332.38 249.191C330.06 246.349 327.276 244.116 324.028 242.492C320.78 240.868 317.155 240.056 313.153 240.056C309.151 240.056 305.497 240.897 302.191 242.579C298.943 244.203 296.159 246.436 293.839 249.278C291.519 252.12 289.721 255.484 288.445 259.37C287.169 263.198 286.531 267.287 286.531 271.637C286.531 275.987 287.14 280.076 288.358 283.904C289.634 287.732 291.432 291.067 293.752 293.909C296.072 296.751 298.856 298.984 302.104 300.608C305.352 302.232 308.977 303.044 312.979 303.044C316.981 303.044 320.606 302.232 323.854 300.608C327.16 298.926 329.973 296.664 332.293 293.822C334.613 290.98 336.411 287.645 337.687 283.817C338.963 279.931 339.601 275.813 339.601 271.463ZM328.552 271.637C328.552 274.653 328.175 277.495 327.421 280.163C326.725 282.773 325.71 285.064 324.376 287.036C323.042 289.008 321.418 290.574 319.504 291.734C317.648 292.836 315.531 293.387 313.153 293.387C310.775 293.387 308.629 292.836 306.715 291.734C304.801 290.574 303.148 289.008 301.756 287.036C300.422 285.006 299.378 282.686 298.624 280.076C297.928 277.408 297.58 274.537 297.58 271.463C297.58 268.447 297.928 265.605 298.624 262.937C299.378 260.269 300.422 257.978 301.756 256.064C303.09 254.092 304.685 252.555 306.541 251.453C308.455 250.293 310.601 249.713 312.979 249.713C315.357 249.713 317.503 250.293 319.417 251.453C321.331 252.613 322.955 254.179 324.289 256.151C325.681 258.123 326.725 260.443 327.421 263.111C328.175 265.779 328.552 268.621 328.552 271.637Z" fill="#F2FF47"/>
<rect width="360" height="78" transform="translate(0 156)" fill="#FF8B1F"/>
<path d="M15.262 167.885L17.524 176.585L28.486 173.54V224H39.1V162.665H31.618L15.262 167.885ZM79.2491 172.409L62.8061 189.896L64.5461 196.595H69.5051C73.8551 196.595 77.2771 197.407 79.7711 199.031C82.2651 200.655 83.5121 203.004 83.5121 206.078C83.5121 208.92 82.4971 211.182 80.4671 212.864C78.4951 214.546 76.0011 215.387 72.9851 215.387C69.5631 215.387 66.5761 214.72 64.0241 213.386C61.5301 211.994 59.1811 209.993 56.9771 207.383L49.4951 214.343C52.1051 217.475 55.2951 220.056 59.0651 222.086C62.8931 224.058 67.4751 225.044 72.8111 225.044C75.9431 225.044 78.8141 224.58 81.4241 223.652C84.0921 222.666 86.3541 221.332 88.2101 219.65C90.0661 217.91 91.5161 215.88 92.5601 213.56C93.6041 211.182 94.1261 208.572 94.1261 205.73C94.1261 202.888 93.6331 200.452 92.6471 198.422C91.6611 196.392 90.3271 194.71 88.6451 193.376C87.0211 191.984 85.1071 190.911 82.9031 190.157C80.7571 189.345 78.5241 188.794 76.2041 188.504L93.1691 171.104V163.1H52.8881V172.409H79.2491ZM124.59 171.8C127.374 171.8 129.694 172.641 131.55 174.323C133.464 175.947 134.421 178.267 134.421 181.283C134.421 182.675 134.218 183.98 133.812 185.198C133.406 186.416 132.739 187.663 131.811 188.939C130.941 190.215 129.781 191.578 128.331 193.028C126.881 194.42 125.112 195.986 123.024 197.726L102.057 215.561V224H146.079V214.604H117.108L129.636 204.164C132.304 201.96 134.624 199.93 136.596 198.074C138.626 196.218 140.279 194.391 141.555 192.593C142.889 190.795 143.875 188.939 144.513 187.025C145.151 185.111 145.47 182.936 145.47 180.5C145.47 177.774 144.977 175.309 143.991 173.105C143.063 170.843 141.729 168.9 139.989 167.276C138.249 165.652 136.132 164.405 133.638 163.535C131.144 162.665 128.389 162.23 125.373 162.23C122.647 162.23 120.211 162.52 118.065 163.1C115.977 163.68 114.034 164.521 112.236 165.623C110.496 166.667 108.872 168.001 107.364 169.625C105.856 171.191 104.377 172.989 102.927 175.019L110.496 180.935C112.874 177.861 115.107 175.57 117.195 174.062C119.341 172.554 121.806 171.8 124.59 171.8ZM152.368 232.178L153.499 236.615C157.907 236.267 161.242 234.991 163.504 232.787C165.766 230.583 166.897 227.045 166.897 222.173V212.081H155.326V224H159.763C160.169 228.408 157.704 231.134 152.368 232.178ZM208.009 162.665L174.166 202.685L176.167 210.341H206.878V224H217.144V210.341H225.844V201.554H217.144V162.665H208.009ZM206.878 201.554H186.868L206.878 177.455V201.554ZM279.146 207.122C279.146 203.468 278.131 200.481 276.101 198.161C274.129 195.841 271.49 193.927 268.184 192.419C270.736 191.085 272.853 189.345 274.535 187.199C276.217 184.995 277.058 182.182 277.058 178.76C277.058 176.44 276.507 174.265 275.405 172.235C274.361 170.205 272.911 168.465 271.055 167.015C269.199 165.507 266.966 164.347 264.356 163.535C261.746 162.665 258.933 162.23 255.917 162.23C252.843 162.23 250.001 162.665 247.391 163.535C244.839 164.347 242.635 165.507 240.779 167.015C238.923 168.465 237.444 170.205 236.342 172.235C235.298 174.265 234.776 176.44 234.776 178.76C234.776 182.182 235.617 184.995 237.299 187.199C238.981 189.345 241.098 191.085 243.65 192.419C240.17 193.869 237.473 195.783 235.559 198.161C233.645 200.539 232.688 203.613 232.688 207.383C232.688 209.993 233.268 212.4 234.428 214.604C235.588 216.75 237.212 218.577 239.3 220.085C241.388 221.593 243.853 222.782 246.695 223.652C249.537 224.464 252.611 224.87 255.917 224.87C259.223 224.87 262.297 224.464 265.139 223.652C267.981 222.84 270.446 221.68 272.534 220.172C274.622 218.606 276.246 216.721 277.406 214.517C278.566 212.313 279.146 209.848 279.146 207.122ZM266.792 179.804C266.792 182.472 265.748 184.647 263.66 186.329C261.63 188.011 259.049 188.852 255.917 188.852C252.785 188.852 250.175 188.011 248.087 186.329C246.057 184.647 245.042 182.443 245.042 179.717C245.042 177.339 246.028 175.338 248 173.714C249.972 172.032 252.611 171.191 255.917 171.191C259.223 171.191 261.862 172.032 263.834 173.714C265.806 175.338 266.792 177.368 266.792 179.804ZM268.706 206.687C268.706 209.297 267.575 211.501 265.313 213.299C263.051 215.039 259.919 215.909 255.917 215.909C251.915 215.909 248.783 215.039 246.521 213.299C244.259 211.501 243.128 209.297 243.128 206.687C243.128 205.295 243.447 204.019 244.085 202.859C244.781 201.699 245.68 200.713 246.782 199.901C247.942 199.089 249.305 198.48 250.871 198.074C252.437 197.61 254.119 197.378 255.917 197.378C257.715 197.378 259.397 197.61 260.963 198.074C262.529 198.48 263.863 199.089 264.965 199.901C266.125 200.713 267.024 201.699 267.662 202.859C268.358 204.019 268.706 205.295 268.706 206.687ZM339.601 193.463C339.601 189.113 338.963 185.024 337.687 181.196C336.469 177.368 334.7 174.033 332.38 171.191C330.06 168.349 327.276 166.116 324.028 164.492C320.78 162.868 317.155 162.056 313.153 162.056C309.151 162.056 305.497 162.897 302.191 164.579C298.943 166.203 296.159 168.436 293.839 171.278C291.519 174.12 289.721 177.484 288.445 181.37C287.169 185.198 286.531 189.287 286.531 193.637C286.531 197.987 287.14 202.076 288.358 205.904C289.634 209.732 291.432 213.067 293.752 215.909C296.072 218.751 298.856 220.984 302.104 222.608C305.352 224.232 308.977 225.044 312.979 225.044C316.981 225.044 320.606 224.232 323.854 222.608C327.16 220.926 329.973 218.664 332.293 215.822C334.613 212.98 336.411 209.645 337.687 205.817C338.963 201.931 339.601 197.813 339.601 193.463ZM328.552 193.637C328.552 196.653 328.175 199.495 327.421 202.163C326.725 204.773 325.71 207.064 324.376 209.036C323.042 211.008 321.418 212.574 319.504 213.734C317.648 214.836 315.531 215.387 313.153 215.387C310.775 215.387 308.629 214.836 306.715 213.734C304.801 212.574 303.148 211.008 301.756 209.036C300.422 207.006 299.378 204.686 298.624 202.076C297.928 199.408 297.58 196.537 297.58 193.463C297.58 190.447 297.928 187.605 298.624 184.937C299.378 182.269 300.422 179.978 301.756 178.064C303.09 176.092 304.685 174.555 306.541 173.453C308.455 172.293 310.601 171.713 312.979 171.713C315.357 171.713 317.503 172.293 319.417 173.453C321.331 174.613 322.955 176.179 324.289 178.151C325.681 180.123 326.725 182.443 327.421 185.111C328.175 187.779 328.552 190.621 328.552 193.637Z" fill="#000100"/>
<rect width="360" height="78" transform="translate(0 78)" fill="#F675C2"/>
<path d="M15.262 89.885L17.524 98.585L28.486 95.54V146H39.1V84.665H31.618L15.262 89.885ZM79.2491 94.409L62.8061 111.896L64.5461 118.595H69.5051C73.8551 118.595 77.2771 119.407 79.7711 121.031C82.2651 122.655 83.5121 125.004 83.5121 128.078C83.5121 130.92 82.4971 133.182 80.4671 134.864C78.4951 136.546 76.0011 137.387 72.9851 137.387C69.5631 137.387 66.5761 136.72 64.0241 135.386C61.5301 133.994 59.1811 131.993 56.9771 129.383L49.4951 136.343C52.1051 139.475 55.2951 142.056 59.0651 144.086C62.8931 146.058 67.4751 147.044 72.8111 147.044C75.9431 147.044 78.8141 146.58 81.4241 145.652C84.0921 144.666 86.3541 143.332 88.2101 141.65C90.0661 139.91 91.5161 137.88 92.5601 135.56C93.6041 133.182 94.1261 130.572 94.1261 127.73C94.1261 124.888 93.6331 122.452 92.6471 120.422C91.6611 118.392 90.3271 116.71 88.6451 115.376C87.0211 113.984 85.1071 112.911 82.9031 112.157C80.7571 111.345 78.5241 110.794 76.2041 110.504L93.1691 93.104V85.1H52.8881V94.409H79.2491ZM124.59 93.8C127.374 93.8 129.694 94.641 131.55 96.323C133.464 97.947 134.421 100.267 134.421 103.283C134.421 104.675 134.218 105.98 133.812 107.198C133.406 108.416 132.739 109.663 131.811 110.939C130.941 112.215 129.781 113.578 128.331 115.028C126.881 116.42 125.112 117.986 123.024 119.726L102.057 137.561V146H146.079V136.604H117.108L129.636 126.164C132.304 123.96 134.624 121.93 136.596 120.074C138.626 118.218 140.279 116.391 141.555 114.593C142.889 112.795 143.875 110.939 144.513 109.025C145.151 107.111 145.47 104.936 145.47 102.5C145.47 99.774 144.977 97.309 143.991 95.105C143.063 92.843 141.729 90.9 139.989 89.276C138.249 87.652 136.132 86.405 133.638 85.535C131.144 84.665 128.389 84.23 125.373 84.23C122.647 84.23 120.211 84.52 118.065 85.1C115.977 85.68 114.034 86.521 112.236 87.623C110.496 88.667 108.872 90.001 107.364 91.625C105.856 93.191 104.377 94.989 102.927 97.019L110.496 102.935C112.874 99.861 115.107 97.57 117.195 96.062C119.341 94.554 121.806 93.8 124.59 93.8ZM152.368 154.178L153.499 158.615C157.907 158.267 161.242 156.991 163.504 154.787C165.766 152.583 166.897 149.045 166.897 144.173V134.081H155.326V146H159.763C160.169 150.408 157.704 153.134 152.368 154.178ZM208.009 84.665L174.166 124.685L176.167 132.341H206.878V146H217.144V132.341H225.844V123.554H217.144V84.665H208.009ZM206.878 123.554H186.868L206.878 99.455V123.554ZM279.146 129.122C279.146 125.468 278.131 122.481 276.101 120.161C274.129 117.841 271.49 115.927 268.184 114.419C270.736 113.085 272.853 111.345 274.535 109.199C276.217 106.995 277.058 104.182 277.058 100.76C277.058 98.44 276.507 96.265 275.405 94.235C274.361 92.205 272.911 90.465 271.055 89.015C269.199 87.507 266.966 86.347 264.356 85.535C261.746 84.665 258.933 84.23 255.917 84.23C252.843 84.23 250.001 84.665 247.391 85.535C244.839 86.347 242.635 87.507 240.779 89.015C238.923 90.465 237.444 92.205 236.342 94.235C235.298 96.265 234.776 98.44 234.776 100.76C234.776 104.182 235.617 106.995 237.299 109.199C238.981 111.345 241.098 113.085 243.65 114.419C240.17 115.869 237.473 117.783 235.559 120.161C233.645 122.539 232.688 125.613 232.688 129.383C232.688 131.993 233.268 134.4 234.428 136.604C235.588 138.75 237.212 140.577 239.3 142.085C241.388 143.593 243.853 144.782 246.695 145.652C249.537 146.464 252.611 146.87 255.917 146.87C259.223 146.87 262.297 146.464 265.139 145.652C267.981 144.84 270.446 143.68 272.534 142.172C274.622 140.606 276.246 138.721 277.406 136.517C278.566 134.313 279.146 131.848 279.146 129.122ZM266.792 101.804C266.792 104.472 265.748 106.647 263.66 108.329C261.63 110.011 259.049 110.852 255.917 110.852C252.785 110.852 250.175 110.011 248.087 108.329C246.057 106.647 245.042 104.443 245.042 101.717C245.042 99.339 246.028 97.338 248 95.714C249.972 94.032 252.611 93.191 255.917 93.191C259.223 93.191 261.862 94.032 263.834 95.714C265.806 97.338 266.792 99.368 266.792 101.804ZM268.706 128.687C268.706 131.297 267.575 133.501 265.313 135.299C263.051 137.039 259.919 137.909 255.917 137.909C251.915 137.909 248.783 137.039 246.521 135.299C244.259 133.501 243.128 131.297 243.128 128.687C243.128 127.295 243.447 126.019 244.085 124.859C244.781 123.699 245.68 122.713 246.782 121.901C247.942 121.089 249.305 120.48 250.871 120.074C252.437 119.61 254.119 119.378 255.917 119.378C257.715 119.378 259.397 119.61 260.963 120.074C262.529 120.48 263.863 121.089 264.965 121.901C266.125 122.713 267.024 123.699 267.662 124.859C268.358 126.019 268.706 127.295 268.706 128.687ZM339.601 115.463C339.601 111.113 338.963 107.024 337.687 103.196C336.469 99.368 334.7 96.033 332.38 93.191C330.06 90.349 327.276 88.116 324.028 86.492C320.78 84.868 317.155 84.056 313.153 84.056C309.151 84.056 305.497 84.897 302.191 86.579C298.943 88.203 296.159 90.436 293.839 93.278C291.519 96.12 289.721 99.484 288.445 103.37C287.169 107.198 286.531 111.287 286.531 115.637C286.531 119.987 287.14 124.076 288.358 127.904C289.634 131.732 291.432 135.067 293.752 137.909C296.072 140.751 298.856 142.984 302.104 144.608C305.352 146.232 308.977 147.044 312.979 147.044C316.981 147.044 320.606 146.232 323.854 144.608C327.16 142.926 329.973 140.664 332.293 137.822C334.613 134.98 336.411 131.645 337.687 127.817C338.963 123.931 339.601 119.813 339.601 115.463ZM328.552 115.637C328.552 118.653 328.175 121.495 327.421 124.163C326.725 126.773 325.71 129.064 324.376 131.036C323.042 133.008 321.418 134.574 319.504 135.734C317.648 136.836 315.531 137.387 313.153 137.387C310.775 137.387 308.629 136.836 306.715 135.734C304.801 134.574 303.148 133.008 301.756 131.036C300.422 129.006 299.378 126.686 298.624 124.076C297.928 121.408 297.58 118.537 297.58 115.463C297.58 112.447 297.928 109.605 298.624 106.937C299.378 104.269 300.422 101.978 301.756 100.064C303.09 98.092 304.685 96.555 306.541 95.453C308.455 94.293 310.601 93.713 312.979 93.713C315.357 93.713 317.503 94.293 319.417 95.453C321.331 96.613 322.955 98.179 324.289 100.151C325.681 102.123 326.725 104.443 327.421 107.111C328.175 109.779 328.552 112.621 328.552 115.637Z" fill="#000100"/>
<rect width="360" height="78" fill="#11D861"/>
<path d="M15.262 11.885L17.524 20.585L28.486 17.54V68H39.1V6.665H31.618L15.262 11.885ZM79.2491 16.409L62.8061 33.896L64.5461 40.595H69.5051C73.8551 40.595 77.2771 41.407 79.7711 43.031C82.2651 44.655 83.5121 47.004 83.5121 50.078C83.5121 52.92 82.4971 55.182 80.4671 56.864C78.4951 58.546 76.0011 59.387 72.9851 59.387C69.5631 59.387 66.5761 58.72 64.0241 57.386C61.5301 55.994 59.1811 53.993 56.9771 51.383L49.4951 58.343C52.1051 61.475 55.2951 64.056 59.0651 66.086C62.8931 68.058 67.4751 69.044 72.8111 69.044C75.9431 69.044 78.8141 68.58 81.4241 67.652C84.0921 66.666 86.3541 65.332 88.2101 63.65C90.0661 61.91 91.5161 59.88 92.5601 57.56C93.6041 55.182 94.1261 52.572 94.1261 49.73C94.1261 46.888 93.6331 44.452 92.6471 42.422C91.6611 40.392 90.3271 38.71 88.6451 37.376C87.0211 35.984 85.1071 34.911 82.9031 34.157C80.7571 33.345 78.5241 32.794 76.2041 32.504L93.1691 15.104V7.1H52.8881V16.409H79.2491ZM124.59 15.8C127.374 15.8 129.694 16.641 131.55 18.323C133.464 19.947 134.421 22.267 134.421 25.283C134.421 26.675 134.218 27.98 133.812 29.198C133.406 30.416 132.739 31.663 131.811 32.939C130.941 34.215 129.781 35.578 128.331 37.028C126.881 38.42 125.112 39.986 123.024 41.726L102.057 59.561V68H146.079V58.604H117.108L129.636 48.164C132.304 45.96 134.624 43.93 136.596 42.074C138.626 40.218 140.279 38.391 141.555 36.593C142.889 34.795 143.875 32.939 144.513 31.025C145.151 29.111 145.47 26.936 145.47 24.5C145.47 21.774 144.977 19.309 143.991 17.105C143.063 14.843 141.729 12.9 139.989 11.276C138.249 9.652 136.132 8.405 133.638 7.535C131.144 6.665 128.389 6.23 125.373 6.23C122.647 6.23 120.211 6.52 118.065 7.1C115.977 7.68 114.034 8.521 112.236 9.623C110.496 10.667 108.872 12.001 107.364 13.625C105.856 15.191 104.377 16.989 102.927 19.019L110.496 24.935C112.874 21.861 115.107 19.57 117.195 18.062C119.341 16.554 121.806 15.8 124.59 15.8ZM152.368 76.178L153.499 80.615C157.907 80.267 161.242 78.991 163.504 76.787C165.766 74.583 166.897 71.045 166.897 66.173V56.081H155.326V68H159.763C160.169 72.408 157.704 75.134 152.368 76.178ZM208.009 6.665L174.166 46.685L176.167 54.341H206.878V68H217.144V54.341H225.844V45.554H217.144V6.665H208.009ZM206.878 45.554H186.868L206.878 21.455V45.554ZM279.146 51.122C279.146 47.468 278.131 44.481 276.101 42.161C274.129 39.841 271.49 37.927 268.184 36.419C270.736 35.085 272.853 33.345 274.535 31.199C276.217 28.995 277.058 26.182 277.058 22.76C277.058 20.44 276.507 18.265 275.405 16.235C274.361 14.205 272.911 12.465 271.055 11.015C269.199 9.507 266.966 8.347 264.356 7.535C261.746 6.665 258.933 6.23 255.917 6.23C252.843 6.23 250.001 6.665 247.391 7.535C244.839 8.347 242.635 9.507 240.779 11.015C238.923 12.465 237.444 14.205 236.342 16.235C235.298 18.265 234.776 20.44 234.776 22.76C234.776 26.182 235.617 28.995 237.299 31.199C238.981 33.345 241.098 35.085 243.65 36.419C240.17 37.869 237.473 39.783 235.559 42.161C233.645 44.539 232.688 47.613 232.688 51.383C232.688 53.993 233.268 56.4 234.428 58.604C235.588 60.75 237.212 62.577 239.3 64.085C241.388 65.593 243.853 66.782 246.695 67.652C249.537 68.464 252.611 68.87 255.917 68.87C259.223 68.87 262.297 68.464 265.139 67.652C267.981 66.84 270.446 65.68 272.534 64.172C274.622 62.606 276.246 60.721 277.406 58.517C278.566 56.313 279.146 53.848 279.146 51.122ZM266.792 23.804C266.792 26.472 265.748 28.647 263.66 30.329C261.63 32.011 259.049 32.852 255.917 32.852C252.785 32.852 250.175 32.011 248.087 30.329C246.057 28.647 245.042 26.443 245.042 23.717C245.042 21.339 246.028 19.338 248 17.714C249.972 16.032 252.611 15.191 255.917 15.191C259.223 15.191 261.862 16.032 263.834 17.714C265.806 19.338 266.792 21.368 266.792 23.804ZM268.706 50.687C268.706 53.297 267.575 55.501 265.313 57.299C263.051 59.039 259.919 59.909 255.917 59.909C251.915 59.909 248.783 59.039 246.521 57.299C244.259 55.501 243.128 53.297 243.128 50.687C243.128 49.295 243.447 48.019 244.085 46.859C244.781 45.699 245.68 44.713 246.782 43.901C247.942 43.089 249.305 42.48 250.871 42.074C252.437 41.61 254.119 41.378 255.917 41.378C257.715 41.378 259.397 41.61 260.963 42.074C262.529 42.48 263.863 43.089 264.965 43.901C266.125 44.713 267.024 45.699 267.662 46.859C268.358 48.019 268.706 49.295 268.706 50.687ZM339.601 37.463C339.601 33.113 338.963 29.024 337.687 25.196C336.469 21.368 334.7 18.033 332.38 15.191C330.06 12.349 327.276 10.116 324.028 8.492C320.78 6.868 317.155 6.056 313.153 6.056C309.151 6.056 305.497 6.897 302.191 8.579C298.943 10.203 296.159 12.436 293.839 15.278C291.519 18.12 289.721 21.484 288.445 25.37C287.169 29.198 286.531 33.287 286.531 37.637C286.531 41.987 287.14 46.076 288.358 49.904C289.634 53.732 291.432 57.067 293.752 59.909C296.072 62.751 298.856 64.984 302.104 66.608C305.352 68.232 308.977 69.044 312.979 69.044C316.981 69.044 320.606 68.232 323.854 66.608C327.16 64.926 329.973 62.664 332.293 59.822C334.613 56.98 336.411 53.645 337.687 49.817C338.963 45.931 339.601 41.813 339.601 37.463ZM328.552 37.637C328.552 40.653 328.175 43.495 327.421 46.163C326.725 48.773 325.71 51.064 324.376 53.036C323.042 55.008 321.418 56.574 319.504 57.734C317.648 58.836 315.531 59.387 313.153 59.387C310.775 59.387 308.629 58.836 306.715 57.734C304.801 56.574 303.148 55.008 301.756 53.036C300.422 51.006 299.378 48.686 298.624 46.076C297.928 43.408 297.58 40.537 297.58 37.463C297.58 34.447 297.928 31.605 298.624 28.937C299.378 26.269 300.422 23.978 301.756 22.064C303.09 20.092 304.685 18.555 306.541 17.453C308.455 16.293 310.601 15.713 312.979 15.713C315.357 15.713 317.503 16.293 319.417 17.453C321.331 18.613 322.955 20.179 324.289 22.151C325.681 24.123 326.725 26.443 327.421 29.111C328.175 31.779 328.552 34.621 328.552 37.637Z" fill="#000100"/>
</svg>
